<svg xmlns="http://www.w3.org/2000/svg" xmlns:xlink="http://www.w3.org/1999/xlink" viewBox="0 0 610.9 697.91"><defs><style>.b88b2835-3e48-4ffa-a178-141322d2de84{isolation:isolate;}.ad273f51-7e71-4e14-abcd-a56015a25b4e,.b0d8d0c1-c239-4e47-b147-5bc5cce071b6,.ed70ddaa-5f70-4c25-89b8-39938408e88b{mix-blend-mode:multiply;}.ed70ddaa-5f70-4c25-89b8-39938408e88b{fill:url(#aa1a12f9-75aa-4179-b35b-fb21b7ba493c);}.a83582f7-e290-46db-ab33-fc3d37b28ec7{fill:url(#ba787c06-d275-4dfb-9ee8-466c6f54169f);}.b712d4ff-3864-4e46-8e95-6342767c7589{fill:url(#eae5a2c8-b847-45ee-93fa-b2da20ab05b1);}.e5f5987c-ddbc-40dd-b51c-0725acbaac32,.f2cec068-542d-45e3-84c7-f219f2939d33{fill:#dcb7c0;}.f2cec068-542d-45e3-84c7-f219f2939d33{opacity:0.34;}.b9880dc6-1378-4a25-ae4e-a7ac1ab8063f{fill:url(#fd1a8412-d75d-4d50-bd95-79cab14fcb6a);}.a0949da1-c247-46aa-81da-6e621aea86c9{fill:#fff;}.a0949da1-c247-46aa-81da-6e621aea86c9,.f403623e-5552-4a88-ac4e-8d7ed038931f{opacity:0.59;}.ad273f51-7e71-4e14-abcd-a56015a25b4e{opacity:0.51;fill:url(#af94246c-6773-432c-9e21-c86fd1b269b7);}.b055d3c8-93fb-4c9f-b89c-24a25c56cb12{opacity:0.57;}.b0d8d0c1-c239-4e47-b147-5bc5cce071b6{fill:url(#b3bd832c-b7ed-47ae-b8a6-ca581ebc8b05);}.a3a7e39d-cc62-4886-b0d7-1a9811b5255b,.b0195cd4-55b0-4139-9eaf-f4c3b31dabce{fill:#b57cb6;}.f403623e-5552-4a88-ac4e-8d7ed038931f{fill:url(#b1dc17df-fd32-4eb0-818d-6352f90380e5);}.b84421e8-f855-4ab3-a9d9-517dfc63d601{fill:#cca7a1;}.a3a7e39d-cc62-4886-b0d7-1a9811b5255b{opacity:0.61;}</style><radialGradient id="aa1a12f9-75aa-4179-b35b-fb21b7ba493c" cx="305.45" cy="317.23" r="305.45" gradientUnits="userSpaceOnUse"><stop offset="0.47" stop-color="#c4a08f"></stop><stop offset="0.57" stop-color="#c5a191" stop-opacity="0.98"></stop><stop offset="0.65" stop-color="#c8a696" stop-opacity="0.94"></stop><stop offset="0.72" stop-color="#cdae9f" stop-opacity="0.85"></stop><stop offset="0.78" stop-color="#d3b9ac" stop-opacity="0.74"></stop><stop offset="0.84" stop-color="#dcc7bd" stop-opacity="0.59"></stop><stop offset="0.9" stop-color="#e7d9d2" stop-opacity="0.4"></stop><stop offset="0.96" stop-color="#f4edea" stop-opacity="0.19"></stop><stop offset="1" stop-color="#fff" stop-opacity="0"></stop></radialGradient><radialGradient id="ba787c06-d275-4dfb-9ee8-466c6f54169f" cx="310.89" cy="325.98" r="292.12" gradientTransform="translate(0 25.53) scale(1 0.92)" gradientUnits="userSpaceOnUse"><stop offset="0.84" stop-color="#e6dbce"></stop><stop offset="0.85" stop-color="#e7dcd0" stop-opacity="0.96"></stop><stop offset="0.88" stop-color="#eae0d5" stop-opacity="0.86"></stop><stop offset="0.91" stop-color="#eee6dd" stop-opacity="0.69"></stop><stop offset="0.94" stop-color="#f4efe9" stop-opacity="0.45"></stop><stop offset="0.98" stop-color="#fbfaf8" stop-opacity="0.15"></stop><stop offset="1" stop-color="#fff" stop-opacity="0"></stop></radialGradient><linearGradient id="eae5a2c8-b847-45ee-93fa-b2da20ab05b1" x1="310.92" y1="606" x2="310.96" y2="606" gradientUnits="userSpaceOnUse"><stop offset="0.42" stop-color="#dccdd8"></stop><stop offset="0.43" stop-color="#dfd2dc"></stop><stop offset="0.52" stop-color="#f1ebef"></stop><stop offset="0.61" stop-color="#fbfafb"></stop><stop offset="0.67" stop-color="#fff"></stop></linearGradient><linearGradient id="fd1a8412-d75d-4d50-bd95-79cab14fcb6a" x1="309.14" y1="199.66" x2="309.14" y2="424.11" gradientUnits="userSpaceOnUse"><stop offset="0" stop-color="#fff"></stop><stop offset="0.09" stop-color="#fff" stop-opacity="0.97"></stop><stop offset="0.22" stop-color="#fff" stop-opacity="0.89"></stop><stop offset="0.38" stop-color="#fff" stop-opacity="0.75"></stop><stop offset="0.56" stop-color="#fff" stop-opacity="0.56"></stop><stop offset="0.76" stop-color="#fff" stop-opacity="0.32"></stop><stop offset="0.98" stop-color="#fff" stop-opacity="0.04"></stop><stop offset="1" stop-color="#fff" stop-opacity="0"></stop></linearGradient><linearGradient id="af94246c-6773-432c-9e21-c86fd1b269b7" x1="309.69" y1="397.97" x2="309.69" y2="221.21" gradientUnits="userSpaceOnUse"><stop offset="0" stop-color="#fff" stop-opacity="0"></stop><stop offset="0.12" stop-color="#faf3ee" stop-opacity="0.19"></stop><stop offset="0.26" stop-color="#f5e7de" stop-opacity="0.37"></stop><stop offset="0.4" stop-color="#f0ded1" stop-opacity="0.51"></stop><stop offset="0.54" stop-color="#edd6c7" stop-opacity="0.63"></stop><stop offset="0.69" stop-color="#ebd1c0" stop-opacity="0.71"></stop><stop offset="0.84" stop-color="#e9cebb" stop-opacity="0.75"></stop><stop offset="1" stop-color="#e9cdba" stop-opacity="0.77"></stop></linearGradient><linearGradient id="b3bd832c-b7ed-47ae-b8a6-ca581ebc8b05" x1="214.75" y1="309.86" x2="404.64" y2="309.86" gradientUnits="userSpaceOnUse"><stop offset="0.02" stop-color="#af80b0"></stop><stop offset="0.08" stop-color="#be97bf"></stop><stop offset="0.21" stop-color="#dac4da"></stop><stop offset="0.32" stop-color="#eee4ee"></stop><stop offset="0.41" stop-color="#fbf8fb"></stop><stop offset="0.48" stop-color="#fff"></stop><stop offset="0.55" stop-color="#fcfafc"></stop><stop offset="0.65" stop-color="#f3eaf3"></stop><stop offset="0.76" stop-color="#e5d1e5"></stop><stop offset="0.87" stop-color="#d1aed2"></stop><stop offset="0.99" stop-color="#b881b9"></stop><stop offset="1" stop-color="#b57cb6"></stop></linearGradient><radialGradient id="b1dc17df-fd32-4eb0-818d-6352f90380e5" cx="486.95" cy="450.26" r="67.09" gradientUnits="userSpaceOnUse"><stop offset="0" stop-color="#fff"></stop><stop offset="0.26" stop-color="#fff" stop-opacity="0.99"></stop><stop offset="0.4" stop-color="#fff" stop-opacity="0.96"></stop><stop offset="0.5" stop-color="#fff" stop-opacity="0.91"></stop><stop offset="0.6" stop-color="#fff" stop-opacity="0.83"></stop><stop offset="0.68" stop-color="#fff" stop-opacity="0.73"></stop><stop offset="0.76" stop-color="#fff" stop-opacity="0.61"></stop><stop offset="0.83" stop-color="#fff" stop-opacity="0.47"></stop><stop offset="0.9" stop-color="#fff" stop-opacity="0.3"></stop><stop offset="0.96" stop-color="#fff" stop-opacity="0.12"></stop><stop offset="1" stop-color="#fff" stop-opacity="0"></stop></radialGradient></defs><g class="b88b2835-3e48-4ffa-a178-141322d2de84"><g id="bb6abc50-0260-4d77-b2d4-896205331241" data-name="Capa 2"><g id="a1c05130-d596-495a-b2dd-ad88fb860d1e" data-name="Capa 5"><circle class="ed70ddaa-5f70-4c25-89b8-39938408e88b" cx="305.45" cy="317.23" r="305.45"></circle><path class="a83582f7-e290-46db-ab33-fc3d37b28ec7" d="M527.34,334.85c-7-56.77-32.39-122.92-74-171.43-5.3-6.18-8.86-13.12-13.25-20.15a27.19,27.19,0,0,1-2.92-8.61l11-41.44c3.52-12.38,6.53-23,6.53-23l-2.7.24c0-.08,0-.16.05-.24h3.69V0H170.18V69.26a1.44,1.44,0,0,0,0,1s6.09,21.48,11.07,38.94c.08.65.16,1.29.23,1.94a2,2,0,0,0,.05.24l5.89,19.24c2,6.45-4.93,16.59-4.93,16.59h0c-31,34.39-60.89,84.06-75.75,124-13,34.92-20,74.44-16.56,110.7,4.89,52.16,18.48,103.38,36.35,154,3.21,9.15,6.34,18.32,9.11,27.54.59,1.93,6.2,18.54,8.17,24.5,4.44,13.48,14.32,50.65,24.42,88.57C179,717,303.59,691,303.61,672.81c0-37.1.08-69.78.13-83,.09-21.18-.49-42.36-.2-63.54.61-44.47,1.08,8.3.52-38.37-.15-12.5-.15-26.11-3.58-38.21-2.75-9.74-12.63-16.45-21.15-21a98.21,98.21,0,0,1-20.19-14.83,1.41,1.41,0,0,1,1.77-2.19c13,8.63,27,15.89,49.07,15.65,28.47-.32,43.13-13,58.47-25.63a1.41,1.41,0,0,1,1.69-.1l.76.49a1.4,1.4,0,0,1,.08,2.29c-12.86,9.82-24.82,20.27-39.13,29.09-7,4.33-12.63,9.69-14.33,17.94-2.83,13.74-4.37,28.4-3.2,42.41.74,8.79,1.49,95.08,2.08,180.79.17,24.59,138.54,34.16,141.88,2.59,1.69-16,3.35-28.73,4.07-30.08a1.42,1.42,0,0,0,.14-.36c3.86-15.88,7-31.87,11.75-47.62,15-49.86,31.49-99.5,45.9-149.44C531.07,411.79,532,373.22,527.34,334.85Zm-208-165.2a2.24,2.24,0,0,1-.74.37c-4.78,2.11-9.48,3.43-17.51,1.44-1.2-.3-1.74-1.71-.66-2.38,2.87-1.78,5.12-3.19,7.59-3.4,3.85-.32,8.14,1.88,12.24,3C320,169,319.69,169.31,319.39,169.65Z"></path><path class="b712d4ff-3864-4e46-8e95-6342767c7589" d="M310.93,606s0,0,0,0S311,606,310.93,606Z"></path><path class="f2cec068-542d-45e3-84c7-f219f2939d33" d="M195.25,257.72s51.64,1,48.7-6.37l2.94,7.36-33,5.05Z"></path><path class="f2cec068-542d-45e3-84c7-f219f2939d33" d="M422.09,257.72s-51.64,1-48.7-6.37l-2.94,7.36,33,5.05Z"></path><path class="f2cec068-542d-45e3-84c7-f219f2939d33" d="M195.25,257.72s51.64,1,48.7-6.37l2.94,7.36-33,5.05Z"></path><path class="b9880dc6-1378-4a25-ae4e-a7ac1ab8063f" d="M424.4,217.19c-41.8,0-59.49-5.86-71.51-12-37-10.31-72.08-3.82-88.51.51-12,5.95-29.85,11.5-70.51,11.5-48.77,0-72.17,51.73-18.53,71.75s55-50.1,5.85-26.69c-27.71,13.19-28.28-33.38,18.53-33.38s44.87,25,44.87,30.87,2.66,34.15,26.34,68.42c12.68,18.35,2.92,37.54,10.73,60.07s11.7,35.88,11.7,35.88H309l.17-1.38.17,1.38h15.6s3.91-13.35,11.71-35.88-1.95-41.72,10.73-60.07c23.67-34.27,26.33-62.58,26.33-68.42s-1.95-30.87,44.87-30.87,46.25,46.57,18.53,33.38c-49.18-23.41-47.79,46.72,5.85,26.69S473.17,217.19,424.4,217.19Z"></path><circle class="a0949da1-c247-46aa-81da-6e621aea86c9" cx="488.95" cy="450.26" r="85.43" transform="translate(-61.6 822.68) rotate(-76.72)"></circle><path class="e5f5987c-ddbc-40dd-b51c-0725acbaac32" d="M489,368.33A81.93,81.93,0,1,1,407,450.26,82,82,0,0,1,489,368.33m0-7a88.93,88.93,0,1,0,88.93,88.93A88.92,88.92,0,0,0,489,361.33Z"></path><path class="ad273f51-7e71-4e14-abcd-a56015a25b4e" d="M455.51,238.11c-.44-.59-.91-1.17-1.4-1.73a19.67,19.67,0,0,0-3.59-3.49c-8.19-6.76-21-10.61-38.32-11.45a168.06,168.06,0,0,0-25.07.59,151.13,151.13,0,0,0-30.21,5.47c-.31.11-22.34,7.83-46.33,7.83h-1.44c-24,0-46-7.72-46.34-7.83a151,151,0,0,0-30.2-5.47,168.06,168.06,0,0,0-25.07-.59c-17.3.84-30.13,4.69-38.32,11.45a19.67,19.67,0,0,0-3.59,3.49c-.49.56-1,1.14-1.4,1.73-8.57,11.58-.28,23,.43,23.4h0c.05.29-7.38-8.22,3-20.92a30.08,30.08,0,0,1,4.64-4.75c4.64-3.47,14.69-8.75,34-10.08,5-.31,10.35-.34,16.1-.13,3.36.14,6.64.34,9.83.62,2.86.26,5.86.6,9,1,18.41,2.42,30.64,17.16,39.8,32.11,5.17,8.44,2.91,19.81,3.85,29.62A141.15,141.15,0,0,0,292,323c4.09,11.48,12.48,23.67,13.94,35.78l1.62,39.2h4.58l3-39.2c1.45-12.11,8.43-24.3,12.51-35.78a141.17,141.17,0,0,0,7.17-34c.94-9.81-1.32-21.18,3.85-29.62,9.16-15,21.39-29.69,39.8-32.11,3.12-.4,6.12-.74,9-1,3.19-.28,6.47-.48,9.83-.62,5.75-.21,11.13-.18,16.1.13,19.29,1.33,29.34,6.61,34,10.08a17.74,17.74,0,0,1,4.65,4.75c7.89,13.61,2.05,20.24,2,20.35h0C454.26,260.39,464.08,249.69,455.51,238.11Z"></path><g class="b055d3c8-93fb-4c9f-b89c-24a25c56cb12"><path class="b0d8d0c1-c239-4e47-b147-5bc5cce071b6" d="M311,397.83l3.65-39.2c1.46-12.1,8.43-24.3,12.52-35.78a141.09,141.09,0,0,0,7.17-34c.93-9.82-1.33-21.18,3.85-29.63,9.16-14.94,21.39-29.68,39.8-32.1,3.12-.41,6.11-.75,9-1,3.19-.28,6.47-.48,9.83-.62l7.89-.14c-4.59-3.69-18.1-3.46-18.1-3.46a151.15,151.15,0,0,0-30.21,5.46c-.31.11-22.34,7.84-46.33,7.84h-1.45c-24,0-46-7.73-46.33-7.84A151,151,0,0,0,232,221.9s-9.53-.17-17.27,3.46l16.88.76c2.87.25,5.86.59,9,1,18.41,2.42,30.64,17.16,39.8,32.1,5.18,8.45,2.92,19.81,3.85,29.63a141.09,141.09,0,0,0,7.17,34c4.09,11.48,12.48,23.68,13.93,35.78l2.24,39.2Z"></path></g><path class="b0195cd4-55b0-4139-9eaf-f4c3b31dabce" d="M306.06,372.53l-.48-12.82,0-.8-.11-.82-.23-1.65c-.23-1.07-.41-2.16-.71-3.21a63.1,63.1,0,0,0-2-6.21c-3-8.12-7.36-15.57-10.23-23.43a129.35,129.35,0,0,1-6.1-24.52c-.34-2.09-.62-4.18-.87-6.28s-.48-4.21-.58-6.27c-.22-4.17,0-8.45-.21-12.79s-.79-8.84-2.79-13a30.45,30.45,0,0,0-1.67-2.89c-.58-.91-1.15-1.82-1.76-2.71-1.2-1.79-2.45-3.54-3.75-5.27-4.89-6.49-10.22-13.06-17.43-16.89-8.53-4.53-11.88-5.58-25.51-6.88A52.12,52.12,0,0,1,253,233.69c7.16,4.42,12.84,10.84,17.69,17.61q1.83,2.58,3.53,5.27a58.44,58.44,0,0,1,3.16,5.36c1.69,3.64,2.17,7.8,2.3,12s-.07,8.46.12,12.82c.09,2.2.34,4.35.57,6.48s.52,4.28.86,6.41a128.39,128.39,0,0,0,6.43,25.07c1.56,4.07,3.48,7.93,5.36,11.77s3.76,7.63,5.36,11.53A46.72,46.72,0,0,1,301.69,360l1.62,12.71c1.16,8.46,2.23,16.94,3.48,25.4C306.64,389.6,306.3,381.07,306.06,372.53Zm-2.46-13c0-.18,0-.36-.05-.54a.59.59,0,0,0,0,.13Z"></path><path class="b0195cd4-55b0-4139-9eaf-f4c3b31dabce" d="M310.15,398.15c1.25-8.46,2.31-16.94,3.47-25.4L315.24,360a46.74,46.74,0,0,1,3.3-12.06c1.59-3.9,3.48-7.7,5.36-11.53s3.79-7.7,5.36-11.77a129.82,129.82,0,0,0,6.43-25.07c.34-2.13.6-4.27.85-6.41s.49-4.28.58-6.48c.18-4.36,0-8.63.11-12.82s.62-8.33,2.3-12a58.6,58.6,0,0,1,3.17-5.36c1.13-1.79,2.3-3.55,3.53-5.27,4.85-6.77,10.52-13.19,17.69-17.61a52.1,52.1,0,0,1,21.38-7.57c-13.63,1.3-17,2.35-25.51,6.88-7.21,3.83-12.53,10.4-17.42,16.89-1.3,1.73-2.55,3.48-3.75,5.27-.62.89-1.18,1.8-1.76,2.71a30.48,30.48,0,0,0-1.68,2.89c-2,4.13-2.56,8.65-2.78,13s0,8.62-.21,12.79c-.1,2.06-.33,4.16-.59,6.27s-.53,4.19-.86,6.28a130.11,130.11,0,0,1-6.1,24.52c-2.87,7.86-7.2,15.31-10.23,23.43a60.59,60.59,0,0,0-2,6.21c-.3,1-.47,2.14-.7,3.21l-.24,1.65-.1.82,0,.8-.49,12.82C310.63,381.07,310.29,389.6,310.15,398.15Zm3.22-39.06a.59.59,0,0,1,0-.13c0,.18,0,.36-.05.54Z"></path><path class="b0195cd4-55b0-4139-9eaf-f4c3b31dabce" d="M361.77,224.84c-8,1.13-16,2.74-24,4.42a141.17,141.17,0,0,1-28,2.75c-.23,0-.45,0-.67,0h0c-.23,0-.45,0-.67,0a141.2,141.2,0,0,1-28-2.75c-7.94-1.68-15.91-3.29-23.95-4.42s-15.92-2.49-23.93-2.81c6.4.86,11.58,2.41,17.9,3.67,3.17.75,6.33,1.59,9.42,2.57.76.23,1.5.49,2.3.78l2.35.78c1.58.51,3.16,1,4.74,1.44A144.54,144.54,0,0,0,308.47,237h1.37A144.53,144.53,0,0,0,349,231.27c1.59-.46,3.17-.93,4.74-1.44.79-.25,1.57-.52,2.36-.78s1.53-.55,2.3-.78c3.08-1,6.24-1.82,9.41-2.57,6.33-1.26,11.51-2.81,17.91-3.67C377.68,222.35,369.7,223.74,361.77,224.84Z"></path><circle class="f403623e-5552-4a88-ac4e-8d7ed038931f" cx="486.95" cy="450.26" r="67.09"></circle><path class="b84421e8-f855-4ab3-a9d9-517dfc63d601" d="M450.27,447.71v-6a3.44,3.44,0,0,0,.41-.9c1.95-15.91,20.73-22.26,32.65-13.08,2.57,2,5.05,4.06,7.58,6.09-.37.41,0-.12.38-.64,4.45-5.92,10.13-9.5,17.78-9.65a20.12,20.12,0,0,1,20.53,19.58c.43,11.22-3.64,20.36-11.86,27.78-5.15,4.65-10.38,9.2-15.55,13.81-4,3.6-8.05,7.23-12.33,11.07-10.53-9.67-21.1-19.13-31.35-28.92a26.27,26.27,0,0,1-7.49-15C450.78,450.46,450.52,449.08,450.27,447.71Z"></path><path class="a3a7e39d-cc62-4886-b0d7-1a9811b5255b" d="M452.27,447.71v-6a3.44,3.44,0,0,0,.41-.9c1.95-15.91,20.73-22.26,32.65-13.08,2.57,2,5.05,4.06,7.58,6.09-.37.41,0-.12.38-.64,4.45-5.92,10.13-9.5,17.78-9.65a20.12,20.12,0,0,1,20.53,19.58c.43,11.22-3.64,20.36-11.86,27.78-5.15,4.65-10.38,9.2-15.55,13.81-4,3.6-8.05,7.23-12.33,11.07-10.53-9.67-21.1-19.13-31.35-28.92a26.27,26.27,0,0,1-7.49-15C452.78,450.46,452.52,449.08,452.27,447.71Z"></path></g></g></g></svg>