<svg xmlns="http://www.w3.org/2000/svg" xmlns:xlink="http://www.w3.org/1999/xlink" viewBox="0 0 610.9 697.91"><defs><style>.a31e0016-3d6e-476d-b88d-997e1eac72ef{isolation:isolate;}.b134f120-5aa6-4a93-97fa-450465dff074,.b49a2ca1-45fc-4106-9350-faa70ecb3f62,.b6d724e5-690d-41e8-ad7e-74cfece1ee06,.bef2c61f-1d7c-4877-bfce-54eeca95d3d6{mix-blend-mode:multiply;}.b49a2ca1-45fc-4106-9350-faa70ecb3f62{fill:url(#f32aa49d-0e77-4670-bbc7-248d44c4e610);}.af30a32c-5e7f-41d7-9736-fa4722af02f3{fill:url(#bc138e5d-be9f-4ca4-87c3-ffd51476a09d);}.a89d3a83-e0e2-40e4-bfee-5823bb0678ea,.afb50dc5-62be-4f0d-b5b4-aae2cbc7df51{fill:#dcb7c0;}.a89d3a83-e0e2-40e4-bfee-5823bb0678ea{opacity:0.34;}.e102e271-d80e-43c2-acf8-2c4c17265034{fill:url(#a315ade5-2c66-4da7-896e-232d2256844e);}.b63d0815-54e8-4ce9-ba36-261738efb9a1{fill:#fff;opacity:0.59;}.ed080d33-7b9e-434f-adc9-d9dca6a43f46{fill:#b283ba;opacity:0.75;}.e508b275-6fc6-44cb-b316-b3805b5199c9{opacity:0.58;}.a827a599-c77e-429a-a8bb-80392cd6d933{fill:#733f91;}.a651768b-a759-4648-9829-e7df34edb38e{fill:#8f549e;}.bef2c61f-1d7c-4877-bfce-54eeca95d3d6{opacity:0.51;fill:url(#b9ede73e-4e11-4b04-8291-1cfd87d412bd);}.efdd3c06-3117-4472-9bc2-01bc34077115{opacity:0.57;}.fdf5765b-3bf5-4e14-bf97-24e80c88c338{fill:#e9cdba;}.b6d724e5-690d-41e8-ad7e-74cfece1ee06{fill:none;stroke:#817c7d;stroke-linecap:round;stroke-miterlimit:10;stroke-width:3px;stroke-dasharray:6 10;}.b134f120-5aa6-4a93-97fa-450465dff074{fill:#b3aca9;}</style><radialGradient id="f32aa49d-0e77-4670-bbc7-248d44c4e610" cx="305.45" cy="317.23" r="305.45" gradientUnits="userSpaceOnUse"><stop offset="0.47" stop-color="#c4a08f"></stop><stop offset="0.57" stop-color="#c5a191" stop-opacity="0.98"></stop><stop offset="0.65" stop-color="#c8a696" stop-opacity="0.94"></stop><stop offset="0.72" stop-color="#cdae9f" stop-opacity="0.85"></stop><stop offset="0.78" stop-color="#d3b9ac" stop-opacity="0.74"></stop><stop offset="0.84" stop-color="#dcc7bd" stop-opacity="0.59"></stop><stop offset="0.9" stop-color="#e7d9d2" stop-opacity="0.4"></stop><stop offset="0.96" stop-color="#f4edea" stop-opacity="0.19"></stop><stop offset="1" stop-color="#fff" stop-opacity="0"></stop></radialGradient><radialGradient id="bc138e5d-be9f-4ca4-87c3-ffd51476a09d" cx="310.89" cy="325.98" r="292.12" gradientTransform="translate(0 25.53) scale(1 0.92)" gradientUnits="userSpaceOnUse"><stop offset="0.84" stop-color="#e6dbce"></stop><stop offset="0.85" stop-color="#e7dcd0" stop-opacity="0.96"></stop><stop offset="0.88" stop-color="#eae0d5" stop-opacity="0.86"></stop><stop offset="0.91" stop-color="#eee6dd" stop-opacity="0.69"></stop><stop offset="0.94" stop-color="#f4efe9" stop-opacity="0.45"></stop><stop offset="0.98" stop-color="#fbfaf8" stop-opacity="0.15"></stop><stop offset="1" stop-color="#fff" stop-opacity="0"></stop></radialGradient><linearGradient id="a315ade5-2c66-4da7-896e-232d2256844e" x1="309.14" y1="199.66" x2="309.14" y2="424.11" gradientUnits="userSpaceOnUse"><stop offset="0" stop-color="#fff"></stop><stop offset="0.09" stop-color="#fff" stop-opacity="0.97"></stop><stop offset="0.22" stop-color="#fff" stop-opacity="0.89"></stop><stop offset="0.38" stop-color="#fff" stop-opacity="0.75"></stop><stop offset="0.56" stop-color="#fff" stop-opacity="0.56"></stop><stop offset="0.76" stop-color="#fff" stop-opacity="0.32"></stop><stop offset="0.98" stop-color="#fff" stop-opacity="0.04"></stop><stop offset="1" stop-color="#fff" stop-opacity="0"></stop></linearGradient><linearGradient id="b9ede73e-4e11-4b04-8291-1cfd87d412bd" x1="309.69" y1="397.97" x2="309.69" y2="221.21" gradientUnits="userSpaceOnUse"><stop offset="0" stop-color="#fff" stop-opacity="0"></stop><stop offset="0.12" stop-color="#faf3ee" stop-opacity="0.19"></stop><stop offset="0.26" stop-color="#f5e7de" stop-opacity="0.37"></stop><stop offset="0.4" stop-color="#f0ded1" stop-opacity="0.51"></stop><stop offset="0.54" stop-color="#edd6c7" stop-opacity="0.63"></stop><stop offset="0.69" stop-color="#ebd1c0" stop-opacity="0.71"></stop><stop offset="0.84" stop-color="#e9cebb" stop-opacity="0.75"></stop><stop offset="1" stop-color="#e9cdba" stop-opacity="0.77"></stop></linearGradient></defs><g class="a31e0016-3d6e-476d-b88d-997e1eac72ef"><g id="be594ea2-d39d-4818-a7dc-ad54d4b6a363" data-name="Capa 2"><g id="af2f8964-9438-492a-a008-04bac7ffdcdd" data-name="Capa 5"><circle class="b49a2ca1-45fc-4106-9350-faa70ecb3f62" cx="305.45" cy="317.23" r="305.45"></circle><path class="af30a32c-5e7f-41d7-9736-fa4722af02f3" d="M527.34,334.85c-7-56.77-32.39-122.92-74-171.43-5.3-6.18-8.86-13.12-13.25-20.15a27.19,27.19,0,0,1-2.92-8.61l11-41.44c3.52-12.38,6.53-23,6.53-23l-2.7.24c0-.08,0-.16.05-.24h3.69V0H170.18V69.26a1.44,1.44,0,0,0,0,1s6.09,21.48,11.07,38.94c.08.65.16,1.29.23,1.94a2,2,0,0,0,.05.24l5.89,19.24c2,6.45-4.93,16.59-4.93,16.59h0c-31,34.39-60.89,84.06-75.75,124-13,34.92-20,74.44-16.56,110.7,4.89,52.16,18.48,103.38,36.35,154,3.21,9.15,6.34,18.32,9.11,27.54.59,1.93,6.2,18.54,8.17,24.5,4.44,13.48,14.32,50.65,24.42,88.57C179,717,303.59,691,303.61,672.81c0-37.1.08-69.78.13-83,.09-21.18-.49-42.36-.2-63.54.61-44.47,1.08,8.3.52-38.37-.15-12.5-.15-26.11-3.58-38.21-2.75-9.74-12.63-16.45-21.15-21a98.21,98.21,0,0,1-20.19-14.83,1.41,1.41,0,0,1,1.77-2.19c13,8.63,27,15.89,49.07,15.65,28.47-.32,43.13-13,58.47-25.63a1.41,1.41,0,0,1,1.69-.1l.76.49a1.4,1.4,0,0,1,.08,2.29c-12.86,9.82-24.82,20.27-39.13,29.09-7,4.33-12.63,9.69-14.33,17.94-2.83,13.74-4.37,28.4-3.2,42.41.74,8.79,1.49,95.08,2.08,180.79.17,24.59,138.54,34.16,141.88,2.59,1.69-16,3.35-28.73,4.07-30.08a1.42,1.42,0,0,0,.14-.36c3.86-15.88,7-31.87,11.75-47.62,15-49.86,31.49-99.5,45.9-149.44C531.07,411.79,532,373.22,527.34,334.85Zm-208-165.2a2.24,2.24,0,0,1-.74.37c-4.78,2.11-9.48,3.43-17.51,1.44-1.2-.3-1.74-1.71-.66-2.38,2.87-1.78,5.12-3.19,7.59-3.4,3.85-.32,8.14,1.88,12.24,3C320,169,319.69,169.31,319.39,169.65Z"></path><path class="a89d3a83-e0e2-40e4-bfee-5823bb0678ea" d="M195.25,257.72s51.64,1,48.7-6.37l2.94,7.36-33,5.05Z"></path><path class="a89d3a83-e0e2-40e4-bfee-5823bb0678ea" d="M422.09,257.72s-51.64,1-48.7-6.37l-2.94,7.36,33,5.05Z"></path><path class="a89d3a83-e0e2-40e4-bfee-5823bb0678ea" d="M195.25,257.72s51.64,1,48.7-6.37l2.94,7.36-33,5.05Z"></path><path class="e102e271-d80e-43c2-acf8-2c4c17265034" d="M424.4,217.19c-41.8,0-59.49-5.86-71.51-12-37-10.31-72.08-3.82-88.51.51-12,5.95-29.85,11.5-70.51,11.5-48.77,0-72.17,51.73-18.53,71.75s55-50.1,5.85-26.69c-27.71,13.19-28.28-33.38,18.53-33.38s44.87,25,44.87,30.87,2.66,34.15,26.34,68.42c12.68,18.35,2.92,37.54,10.73,60.07s11.7,35.88,11.7,35.88H309l.17-1.38.17,1.38h15.6s3.91-13.35,11.71-35.88-1.95-41.72,10.73-60.07c23.67-34.27,26.33-62.58,26.33-68.42s-1.95-30.87,44.87-30.87,46.25,46.57,18.53,33.38c-49.18-23.41-47.79,46.72,5.85,26.69S473.17,217.19,424.4,217.19Z"></path><path class="a89d3a83-e0e2-40e4-bfee-5823bb0678ea" d="M195.25,257.72s51.64,1,48.7-6.37l2.94,7.36-33,5.05Z"></path><path class="a89d3a83-e0e2-40e4-bfee-5823bb0678ea" d="M422.09,257.72s-51.64,1-48.7-6.37l-2.94,7.36,33,5.05Z"></path><path class="a89d3a83-e0e2-40e4-bfee-5823bb0678ea" d="M195.25,257.72s51.64,1,48.7-6.37l2.94,7.36-33,5.05Z"></path><path class="e102e271-d80e-43c2-acf8-2c4c17265034" d="M424.4,217.19c-41.8,0-59.49-5.86-71.51-12-37-10.31-72.08-3.82-88.51.51-12,5.95-29.85,11.5-70.51,11.5-48.77,0-72.17,51.73-18.53,71.75s55-50.1,5.85-26.69c-27.71,13.19-28.28-33.38,18.53-33.38s44.87,25,44.87,30.87,2.66,34.15,26.34,68.42c12.68,18.35,2.92,37.54,10.73,60.07s11.7,35.88,11.7,35.88H309l.17-1.38.17,1.38h15.6s3.91-13.35,11.71-35.88-1.95-41.72,10.73-60.07c23.67-34.27,26.33-62.58,26.33-68.42s-1.95-30.87,44.87-30.87,46.25,46.57,18.53,33.38c-49.18-23.41-47.79,46.72,5.85,26.69S473.17,217.19,424.4,217.19Z"></path><circle class="b63d0815-54e8-4ce9-ba36-261738efb9a1" cx="478.06" cy="450.26" r="85.43" transform="translate(-178.36 469.91) rotate(-45)"></circle><path class="afb50dc5-62be-4f0d-b5b4-aae2cbc7df51" d="M478.06,368.33a81.93,81.93,0,1,1-81.93,81.93,82,82,0,0,1,81.93-81.93m0-7A88.93,88.93,0,1,0,567,450.26a88.92,88.92,0,0,0-88.93-88.93Z"></path><ellipse class="ed080d33-7b9e-434f-adc9-d9dca6a43f46" cx="480.26" cy="449.54" rx="46.83" ry="43.38" transform="translate(-123.69 710.27) rotate(-66.46)"></ellipse><g class="e508b275-6fc6-44cb-b316-b3805b5199c9"><path class="a827a599-c77e-429a-a8bb-80392cd6d933" d="M499,406.61c-22-9.57-48.14,1.89-58.47,25.6s-.9,50.69,21.06,60.26,48.15-1.89,58.48-25.6S520.93,416.18,499,406.61Zm16.51,58.27c-9.15,21-32.32,31.14-51.77,22.67s-27.8-32.36-18.65-53.35,32.32-31.14,51.77-22.67S524.62,443.89,515.47,464.88Z"></path></g><g class="e508b275-6fc6-44cb-b316-b3805b5199c9"><path class="a651768b-a759-4648-9829-e7df34edb38e" d="M466.71,413.7a4.66,4.66,0,0,0,4.5-3.43,40.89,40.89,0,0,0-6.79,2.82A4.58,4.58,0,0,0,466.71,413.7Z"></path><path class="a651768b-a759-4648-9829-e7df34edb38e" d="M463.65,413.51a42.52,42.52,0,0,0-5.86,3.93,4.51,4.51,0,0,0,1.23.17A4.67,4.67,0,0,0,463.65,413.51Z"></path><path class="a651768b-a759-4648-9829-e7df34edb38e" d="M494,480.71a4.67,4.67,0,0,0-4.67,4.66,2.45,2.45,0,0,0,0,.27,4.67,4.67,0,0,0-8.57,1.26A4.63,4.63,0,0,0,475,486a10.68,10.68,0,0,0-16.54-6.54,4.47,4.47,0,0,0,.08-.82,4.67,4.67,0,0,0-6.42-4.32,7,7,0,0,0-2.66-11.15,7,7,0,0,0-8.11-11.39,40.34,40.34,0,0,0,8,24.46,7,7,0,0,0,.74-.34,4.93,4.93,0,0,0-.43.74,36,36,0,0,0,14,10.92,36.54,36.54,0,0,0,26.19,1.07,4.48,4.48,0,0,0,.05-.64c0-.09,0-.17,0-.26a5.88,5.88,0,0,0,.51.72,40.91,40.91,0,0,0,8.11-3.85A4.67,4.67,0,0,0,494,480.71Z"></path><path class="a651768b-a759-4648-9829-e7df34edb38e" d="M446.85,446.08a4.66,4.66,0,0,0-3.94-4.61,4.67,4.67,0,0,0,3.59-6.39,4.65,4.65,0,0,0,2.12-6.47,7,7,0,0,0,8.66-10.75,44.51,44.51,0,0,0-15.92,32.8,4.58,4.58,0,0,0,.83.08A4.66,4.66,0,0,0,446.85,446.08Z"></path><path class="a651768b-a759-4648-9829-e7df34edb38e" d="M519.09,444.52H519l0-.06a40.16,40.16,0,0,0-7.49-21,4.49,4.49,0,0,0-.72.19,8.21,8.21,0,0,0-.14-1.33,36.54,36.54,0,0,0-5.73-5.8,7.83,7.83,0,0,0-1.55-.16,7.34,7.34,0,0,0-.81.05,6.62,6.62,0,0,0,.23-1.48,35.81,35.81,0,0,0-6.05-3.36,36.4,36.4,0,0,0-24.38-1.62,4.74,4.74,0,0,0,.54,1,7.42,7.42,0,0,0,2.39,14.44,7.24,7.24,0,0,0,2-.27,8.88,8.88,0,0,0,11,13.72,5.15,5.15,0,0,0,9.79-1.19,7.41,7.41,0,0,0,12.68-4.31,5.36,5.36,0,0,0,1.75.3,4.63,4.63,0,0,0,.65,0v0a5.1,5.1,0,0,0,1.18,3.28,4.66,4.66,0,0,0-.14,9,6.69,6.69,0,0,0-2.61,5.31,6.61,6.61,0,0,0,.43,2.37A9.54,9.54,0,0,0,510,465.25a4.8,4.8,0,0,0-1.14-.13,5.12,5.12,0,0,0-3.25,9.09,6.8,6.8,0,0,0-1-.08,6.71,6.71,0,0,0-5.7,10.25,42.38,42.38,0,0,0,9.95-8.73l-.39-.3.41,0h.22a44.67,44.67,0,0,0,6.4-10.49A43.82,43.82,0,0,0,519.09,444.52Zm-29.64-30.25a4.57,4.57,0,0,0-1.05-.12l-.39,0c0-.15,0-.31,0-.47h.37a4.58,4.58,0,0,0,1.12-.14C489.49,413.79,489.46,414,489.45,414.27ZM496,424.9a3,3,0,0,0,.07-.32c0,.12,0,.23.05.34Zm.07-2a4.86,4.86,0,0,0-.63-1.64,5.53,5.53,0,0,0,.71,0h.29A7.85,7.85,0,0,0,496.08,422.9Z"></path></g><path class="bef2c61f-1d7c-4877-bfce-54eeca95d3d6" d="M455.51,238.11c-.44-.59-.91-1.17-1.4-1.73a19.67,19.67,0,0,0-3.59-3.49c-8.19-6.76-21-10.61-38.32-11.45a168.06,168.06,0,0,0-25.07.59,151.13,151.13,0,0,0-30.21,5.47c-.31.11-22.34,7.83-46.33,7.83h-1.44c-24,0-46-7.72-46.34-7.83a151,151,0,0,0-30.2-5.47,168.06,168.06,0,0,0-25.07-.59c-17.3.84-30.13,4.69-38.32,11.45a19.67,19.67,0,0,0-3.59,3.49c-.49.56-1,1.14-1.4,1.73-8.57,11.58-.28,23,.43,23.4h0c.05.29-7.38-8.22,3-20.92a30.08,30.08,0,0,1,4.64-4.75c4.64-3.47,14.69-8.75,34-10.08,5-.31,10.35-.34,16.1-.13,3.36.14,6.64.34,9.83.62,2.86.26,5.86.6,9,1,18.41,2.42,30.64,17.16,39.8,32.11,5.17,8.44,2.91,19.81,3.85,29.62A141.15,141.15,0,0,0,292,323c4.09,11.48,12.48,23.67,13.94,35.78l1.62,39.2h4.58l3-39.2c1.45-12.11,8.43-24.3,12.51-35.78a141.17,141.17,0,0,0,7.17-34c.94-9.81-1.32-21.18,3.85-29.62,9.16-15,21.39-29.69,39.8-32.11,3.12-.4,6.12-.74,9-1,3.19-.28,6.47-.48,9.83-.62,5.75-.21,11.13-.18,16.1.13,19.29,1.33,29.34,6.61,34,10.08a17.74,17.74,0,0,1,4.65,4.75c7.89,13.61,2.05,20.24,2,20.35h0C454.26,260.39,464.08,249.69,455.51,238.11Z"></path><g class="efdd3c06-3117-4472-9bc2-01bc34077115"><path class="fdf5765b-3bf5-4e14-bf97-24e80c88c338" d="M387.14,222.18a170.78,170.78,0,0,0-19.37,3.06c-3.19.72-6.36,1.53-9.47,2.48s-6.23,2.09-9.39,3a169.35,169.35,0,0,1-19.31,4.18,138.74,138.74,0,0,1-39.53.51c-3.29-.42-6.54-1-9.79-1.63s-6.45-1.47-9.64-2.34q-2.38-.68-4.75-1.43l-2.36-.79c-.81-.29-1.54-.53-2.3-.77-3.07-1-6.23-1.79-9.38-2.58s-6.35-1.44-9.57-2-6.44-1.12-9.68-1.63l0-.3c3.29.06,6.57.3,9.85.58s6.55.78,9.8,1.32,6.48,1.26,9.71,2.1c.83.2,1.65.45,2.4.69l2.33.69c1.56.44,3.13.85,4.7,1.25,3.15.81,6.32,1.53,9.5,2.18s6.37,1.28,9.58,1.74a130.7,130.7,0,0,0,38.83.5,167.6,167.6,0,0,0,19.2-3.7c3.18-.78,6.26-1.72,9.44-2.66s6.39-1.59,9.63-2.21a169.24,169.24,0,0,1,19.53-2.48Z"></path></g><g class="efdd3c06-3117-4472-9bc2-01bc34077115"><path class="fdf5765b-3bf5-4e14-bf97-24e80c88c338" d="M311.4,398l2.18-26.7c.39-4.45.68-8.89,1.14-13.36a64.39,64.39,0,0,1,3.33-13.1c3-8.46,7.05-16.48,9.69-24.92a138.34,138.34,0,0,0,5.4-26c.23-2.19.48-4.43.6-6.59s.09-4.39.07-6.61a75.48,75.48,0,0,1,.59-13.62,26,26,0,0,1,2.08-6.78l.86-1.59c.29-.5.59-1,.89-1.45.59-1,1.18-1.92,1.82-2.85a102,102,0,0,1,8.2-10.83,63.53,63.53,0,0,1,10.07-9.24,43.84,43.84,0,0,1,12.2-6.23,31.87,31.87,0,0,1,3.32-.89,29.34,29.34,0,0,1,3.37-.6c1.13-.2,2.24-.27,3.36-.36l3.35-.28,3.35-.25,3.36-.1c2.23-.06,4.47-.11,6.7-.14l0,.3q-3.33.38-6.66.71l-3.32.34-3.31.5-3.3.46c-1.1.15-2.22.28-3.28.53a27.16,27.16,0,0,0-3.18.75,28,28,0,0,0-3.1,1c-8.17,3.06-15.05,8.8-20.69,15.46a99.5,99.5,0,0,0-7.86,10.57c-.61.92-1.21,1.85-1.8,2.78-.29.47-.61.94-.88,1.4l-.75,1.34a23.13,23.13,0,0,0-1.9,6,74,74,0,0,0-.83,13.09c0,2.23-.05,4.49-.22,6.77s-.46,4.49-.75,6.73a140.25,140.25,0,0,1-5.92,26.29c-2.85,8.58-7,16.53-10.14,24.83A63.41,63.41,0,0,0,315.91,358c-.55,4.41-1,8.87-1.43,13.3L311.7,398Z"></path></g><g class="efdd3c06-3117-4472-9bc2-01bc34077115"><path class="fdf5765b-3bf5-4e14-bf97-24e80c88c338" d="M308,398l-1.76-25.53-.87-12.77-.06-.79c0-.26-.08-.52-.12-.78l-.26-1.53c-.25-1-.44-2.05-.76-3.06a57.71,57.71,0,0,0-2.07-6c-3.15-7.86-7.55-15.21-10.68-23.29a130.64,130.64,0,0,1-6.53-24.94c-.36-2.12-.66-4.25-.93-6.38s-.53-4.27-.66-6.46c-.25-4.35-.09-8.62-.3-12.81s-.77-8.28-2.48-11.84a58.42,58.42,0,0,0-3.17-5.31c-1.15-1.78-2.34-3.51-3.57-5.22-4.88-6.82-10.6-13.13-17.64-17.65a39.87,39.87,0,0,0-11.42-5c-1-.28-2-.46-3.08-.69s-2.09-.34-3.14-.52q-3.16-.46-6.33-1l0-.3c2.13.13,4.27.27,6.4.43,1.07.1,2.13.12,3.21.27s2.15.26,3.21.47a40.94,40.94,0,0,1,12.2,4.58c7.64,4.32,13.79,10.78,19,17.67q1.92,2.61,3.71,5.31c.6.9,1.17,1.81,1.75,2.72s1.15,1.91,1.68,2.93c2,4.19,2.45,8.74,2.62,13.07s-.12,8.61,0,12.79c.07,2.07.27,4.18.49,6.29s.48,4.21.78,6.31a128.46,128.46,0,0,0,6,24.63c2.9,7.9,7.19,15.37,10.26,23.42a57.49,57.49,0,0,1,2,6.17c.31,1,.48,2.11.71,3.17l.24,1.63.11.81,0,.8.58,12.8L308.34,398Z"></path></g><ellipse class="ed080d33-7b9e-434f-adc9-d9dca6a43f46" cx="311.55" cy="292.42" rx="9.69" ry="8.98" transform="translate(-80.97 461.24) rotate(-66.46)"></ellipse><g class="e508b275-6fc6-44cb-b316-b3805b5199c9"><path class="a827a599-c77e-429a-a8bb-80392cd6d933" d="M315.42,283.53c-4.55-2-10,.39-12.1,5.3s-.19,10.49,4.36,12.47,10-.39,12.1-5.29S320,285.51,315.42,283.53Zm3.42,12.06c-1.9,4.35-6.69,6.45-10.72,4.7s-5.75-6.7-3.86-11.05S311,282.8,315,284.55,320.73,291.25,318.84,295.59Z"></path></g><g class="e508b275-6fc6-44cb-b316-b3805b5199c9"><path class="a651768b-a759-4648-9829-e7df34edb38e" d="M308.74,285a1,1,0,0,0,.93-.71,9,9,0,0,0-1.4.58A1,1,0,0,0,308.74,285Z"></path><path class="a651768b-a759-4648-9829-e7df34edb38e" d="M308.11,285a8.87,8.87,0,0,0-1.21.82,1,1,0,0,0,.25,0A1,1,0,0,0,308.11,285Z"></path><path class="a651768b-a759-4648-9829-e7df34edb38e" d="M314.38,298.87a1,1,0,0,0-1,1v.05a1,1,0,0,0-1.77.26,1,1,0,0,0-.71-.31,1,1,0,0,0-.48.12,2.21,2.21,0,0,0-3.43-1.35,1,1,0,0,0,0-.17,1,1,0,0,0-1-1,.9.9,0,0,0-.36.08,1.46,1.46,0,0,0-.55-2.31,1.47,1.47,0,0,0,.53-1.12,1.45,1.45,0,0,0-1.45-1.45,1.49,1.49,0,0,0-.76.21,8.39,8.39,0,0,0,1.66,5.06l.15-.07-.09.16a7.52,7.52,0,0,0,2.91,2.26,7.63,7.63,0,0,0,5.42.22.57.57,0,0,0,0-.13v-.06l.11.15a8.26,8.26,0,0,0,1.67-.8A1,1,0,0,0,314.38,298.87Z"></path><path class="a651768b-a759-4648-9829-e7df34edb38e" d="M304.63,291.7a1,1,0,0,1,0-1.9.9.9,0,0,0-.07-.37,1,1,0,0,0,.56-.88.88.88,0,0,0-.12-.46,1.52,1.52,0,0,0,.7.18,1.45,1.45,0,0,0,1.45-1.45,1.43,1.43,0,0,0-.36-1,9.18,9.18,0,0,0-3.29,6.79l.17,0A1,1,0,0,0,304.63,291.7Z"></path><path class="a651768b-a759-4648-9829-e7df34edb38e" d="M319.59,291.38h0A8.24,8.24,0,0,0,318,287l-.15,0a1.18,1.18,0,0,0,0-.27,7,7,0,0,0-1.18-1.2,1.12,1.12,0,0,0-.32,0h-.17a1.57,1.57,0,0,0,.05-.3,8,8,0,0,0-1.25-.7,7.53,7.53,0,0,0-5.05-.33,2.12,2.12,0,0,0,.11.21,1.54,1.54,0,0,0,.5,3,1.4,1.4,0,0,0,.41-.06,1.82,1.82,0,0,0-.5,1.25,1.84,1.84,0,0,0,1.84,1.84,1.82,1.82,0,0,0,.93-.25,1.08,1.08,0,0,0,1,.64,1.07,1.07,0,0,0,1.05-.89,1.53,1.53,0,0,0,2.62-.89,1.15,1.15,0,0,0,.37.06h.13a1.06,1.06,0,0,0,.24.68,1,1,0,0,0-.72.94,1,1,0,0,0,.7.92,1.4,1.4,0,0,0-.54,1.1,1.3,1.3,0,0,0,.09.49,1.93,1.93,0,0,0-.67,1.48,2,2,0,0,0,.23.94.85.85,0,0,0-.23,0,1.07,1.07,0,0,0-1.07,1.06,1.1,1.1,0,0,0,.39.83.75.75,0,0,0-.21,0,1.39,1.39,0,0,0-1.18,2.12,8.82,8.82,0,0,0,2.06-1.81l-.08-.06h.13a9,9,0,0,0,1.33-2.17A9.23,9.23,0,0,0,319.59,291.38Zm-6.14-6.26a.78.78,0,0,0-.22,0h-.08a.34.34,0,0,0,0-.1h.07l.24,0A.77.77,0,0,0,313.45,285.12Zm1.36,2.2s0,0,0-.07a.2.2,0,0,1,0,.07Zm0-.42a.79.79,0,0,0-.13-.33h.21A2,2,0,0,0,314.82,286.9Z"></path></g><path class="b6d724e5-690d-41e8-ad7e-74cfece1ee06" d="M394.84,497.66H368a58,58,0,0,1-57.95-58h0"></path><polyline class="b6d724e5-690d-41e8-ad7e-74cfece1ee06" points="310.3 417.32 310.3 387.15 310.3 342.42"></polyline><path class="b134f120-5aa6-4a93-97fa-450465dff074" d="M318.77,326.25l-7.54-7.53a1.3,1.3,0,0,0-1.84,0l-7.54,7.53a1.89,1.89,0,0,0-.28,2.4,1.84,1.84,0,0,0,2.82.27l4.08-4.08v8.64a1.88,1.88,0,0,0,1.25,1.82,1.85,1.85,0,0,0,2.43-1.75v-8.71l4.08,4.08a1.85,1.85,0,0,0,1.3.53,1.83,1.83,0,0,0,1.53-.82A2,2,0,0,0,318.77,326.25Z"></path></g></g></g></svg>