<svg xmlns="http://www.w3.org/2000/svg" xmlns:xlink="http://www.w3.org/1999/xlink" viewBox="0 0 595.5 577.93"><defs><style>.b6781d1c-6c2c-4099-9348-343a774458aa{isolation:isolate;}.b5539981-9314-4b2d-9b4f-db63b5871dbd,.bb88072e-6462-41a9-9aaf-1a1d04feda3e{mix-blend-mode:multiply;}.b8f76375-c1b2-485d-9595-671ac3eb6f23{fill:url(#b1955bdd-d0b5-4d57-ad06-7cdb4a4d7036);}.b5539981-9314-4b2d-9b4f-db63b5871dbd{opacity:0.46;}.f82b4b53-ec6c-45af-9cc0-268964918dd0{fill:url(#a9827a4e-f050-4ded-9738-125fec494e4b);}.acdcccdb-689d-40fd-a83b-f1f3f3dd936d,.f4f5d38a-cabb-41fe-858e-2f6b4807886d{fill:#733f8b;}.acdcccdb-689d-40fd-a83b-f1f3f3dd936d{opacity:0.75;}.a4d6dc2d-010a-4fd5-85ad-ad1be2d202cf,.ab800450-5723-4fda-b4ac-3cac73170313{fill:#ac80b4;}.b2ef83ca-3f23-4aa2-b2a4-8a70ff7ce427,.f7cdc10a-1d77-4e92-b663-664737e2a7f7{fill:#fff;}.bb9ce06d-c411-4b48-8118-31877107f8db,.bf2f68d6-05f9-449d-895d-cd500dcbf0cf,.f7cdc10a-1d77-4e92-b663-664737e2a7f7{opacity:0.4;}.bf2f68d6-05f9-449d-895d-cd500dcbf0cf{fill:#b283ba;}.bb9ce06d-c411-4b48-8118-31877107f8db{fill:url(#adec2327-5eeb-4c45-b660-064823334bfb);}.a4d6dc2d-010a-4fd5-85ad-ad1be2d202cf{opacity:0.66;}.e944ccf1-cf31-4865-8dbf-92b013feb634{opacity:0.61;}.b3156a5c-0918-4e6d-8eb4-8843f902644c{fill:#fefefe;opacity:0.53;}.f4f5d38a-cabb-41fe-858e-2f6b4807886d{opacity:0.44;}</style><radialGradient id="b1955bdd-d0b5-4d57-ad06-7cdb4a4d7036" cx="6855.83" cy="2417.19" r="251.59" gradientTransform="matrix(-0.79, 0.61, -0.61, -0.79, 7223.52, -1996.93)" gradientUnits="userSpaceOnUse"><stop offset="0" stop-color="#b283ba" stop-opacity="0.8"></stop><stop offset="0.28" stop-color="#b385bb" stop-opacity="0.79"></stop><stop offset="0.44" stop-color="#b78cbf" stop-opacity="0.74"></stop><stop offset="0.58" stop-color="#bf97c5" stop-opacity="0.67"></stop><stop offset="0.69" stop-color="#c9a8cf" stop-opacity="0.56"></stop><stop offset="0.79" stop-color="#d6bdda" stop-opacity="0.42"></stop><stop offset="0.89" stop-color="#e7d8e9" stop-opacity="0.25"></stop><stop offset="0.98" stop-color="#faf6fa" stop-opacity="0.06"></stop><stop offset="1" stop-color="#fff" stop-opacity="0"></stop></radialGradient><radialGradient id="a9827a4e-f050-4ded-9738-125fec494e4b" cx="6950.72" cy="2415.76" r="233.35" gradientTransform="matrix(-0.79, 0.61, -0.61, -0.79, 7223.52, -1996.93)" gradientUnits="userSpaceOnUse"><stop offset="0" stop-color="#b8dbf4" stop-opacity="0.8"></stop><stop offset="0.26" stop-color="#b9dbf4" stop-opacity="0.79"></stop><stop offset="0.41" stop-color="#bcddf5" stop-opacity="0.76"></stop><stop offset="0.53" stop-color="#c1e0f5" stop-opacity="0.7"></stop><stop offset="0.63" stop-color="#c8e3f7" stop-opacity="0.62"></stop><stop offset="0.73" stop-color="#d1e8f8" stop-opacity="0.51"></stop><stop offset="0.82" stop-color="#ddeefa" stop-opacity="0.38"></stop><stop offset="0.9" stop-color="#ebf5fc" stop-opacity="0.23"></stop><stop offset="0.98" stop-color="#fafcfe" stop-opacity="0.06"></stop><stop offset="1" stop-color="#fff" stop-opacity="0"></stop></radialGradient><linearGradient id="adec2327-5eeb-4c45-b660-064823334bfb" x1="307.55" y1="413.65" x2="275.08" y2="166.18" gradientUnits="userSpaceOnUse"><stop offset="0.07" stop-color="#b57cb6"></stop><stop offset="0.37" stop-color="#cba2cb"></stop><stop offset="1" stop-color="#fff"></stop></linearGradient></defs><g class="b6781d1c-6c2c-4099-9348-343a774458aa"><g id="fbdeb69c-6747-46f3-a1a7-8099c46fbee3" data-name="Capa 2"><g id="b4e3c987-d61d-45dc-968b-6a82c932d595" data-name="Capa 5"><g class="bb88072e-6462-41a9-9aaf-1a1d04feda3e"><path class="b8f76375-c1b2-485d-9595-671ac3eb6f23" d="M111.54,434a269.87,269.87,0,0,1,50-378.29c118.27-90.66,287.66-68.27,378.31,50s68.28,287.66-50,378.31a270,270,0,0,1-284.06,27.58,265.94,265.94,0,0,1-49.63-31.78A269.86,269.86,0,0,1,111.54,434Z"></path></g><g class="b5539981-9314-4b2d-9b4f-db63b5871dbd"><path class="f82b4b53-ec6c-45af-9cc0-268964918dd0" d="M51.63,479.91A250.3,250.3,0,0,1,98,129.05C207.65,45,364.76,65.73,448.84,175.42s63.33,266.79-46.36,350.88A250.49,250.49,0,0,1,139,551.87,246,246,0,0,1,93,522.4,249.87,249.87,0,0,1,51.63,479.91Z"></path></g><ellipse class="acdcccdb-689d-40fd-a83b-f1f3f3dd936d" cx="302.07" cy="250.34" rx="178.34" ry="169.04" transform="translate(-44.3 66.09) rotate(-11.64)"></ellipse><ellipse class="ab800450-5723-4fda-b4ac-3cac73170313" cx="302.07" cy="250.34" rx="167.24" ry="158.52" transform="translate(-44.3 66.09) rotate(-11.64)"></ellipse><ellipse class="f7cdc10a-1d77-4e92-b663-664737e2a7f7" cx="295.59" cy="252.61" rx="146.7" ry="136.56" transform="translate(-44.89 64.83) rotate(-11.64)"></ellipse><path class="bf2f68d6-05f9-449d-895d-cd500dcbf0cf" d="M429.79,303.59c-18.62,40.54-57.35,72.61-106.65,82.76-79.36,16.35-156-30.28-171.23-104.14s36.77-147,116.12-163.35c44.08-9.07,87.32,1.28,119.67,24.92.52.7,1.15,1.46,1.88,2.3,31.95,37-10.4,53.71,2.85,90.11C405.19,271.24,435.43,268.63,429.79,303.59Z"></path><path class="bb9ce06d-c411-4b48-8118-31877107f8db" d="M429.79,303.59c-18.62,40.54-57.35,72.61-106.65,82.76-79.36,16.35-156-30.28-171.23-104.14s36.77-147,116.12-163.35c44.08-9.07,87.32,1.28,119.67,24.92.52.7,1.15,1.46,1.88,2.3,31.95,37-10.4,53.71,2.85,90.11C405.19,271.24,435.43,268.63,429.79,303.59Z"></path><path class="ab800450-5723-4fda-b4ac-3cac73170313" d="M389.58,146.08c31.95,37-10.4,53.71,2.85,90.12s45.39,32.16,36.55,71.64c-5.13,22.93,24.76-28.25,24.76-28.25V202s-10-37.21-12.41-38.54S366.71,119.63,389.58,146.08Z"></path><path class="a4d6dc2d-010a-4fd5-85ad-ad1be2d202cf" d="M252.83,318.4c14.08-15.3,52.9-17.07,54.59-4.65,1.66,12.19,1.22,16.36-3.09,22.39-19.68,27.54-33,27.79-33,27.79s-29.07,6.42-31.73,21.43c-1.45,8.2-31-13.57-37-19.54,0,0,1.53-3.67,39.77-30.9C247.57,331.26,249.32,322.22,252.83,318.4Z"></path><path class="b2ef83ca-3f23-4aa2-b2a4-8a70ff7ce427" d="M78.27,411.54c20.07-13.47,42.54-19.77,65.72-23.82,22.49-3.93,45.18-7.59,64.89-20.58,9.53-6.28,17.86-14.16,26.77-21.28a29.87,29.87,0,0,1,5.87-4.2c6.18-2.83,9.75-6.2,10.62-13,1.24-9.68,9.1-16,19.36-19,11.68-3.46,23.69-5.89,33.42,1.15,2.55,1.85,3.81,6.4,3.5,9.75-1.85,19.84-26.16,35.24-46.23,29.67-1.55-.43-3.51-1.32-4.77-.79C248.81,353,239.24,355.66,232,361a150.9,150.9,0,0,1-72.72,28.84C131.43,393.22,104,398.33,78.27,411.54Z"></path><g class="e944ccf1-cf31-4865-8dbf-92b013feb634"><path class="b3156a5c-0918-4e6d-8eb4-8843f902644c" d="M331.19,204.47c0,40.26-60.82,35-55.9-1.38.9-6.66,2.84-13.33,6.81-18.75C298.3,162.21,331.19,180.42,331.19,204.47Z"></path></g><path class="f4f5d38a-cabb-41fe-858e-2f6b4807886d" d="M425,255c8.17,2,16.69-1.89,22.79-7.78a16.26,16.26,0,0,0,3.4-4.09,15.9,15.9,0,0,0,1.35-6c.64-6.93,1.23-14.18-1.36-20.34-1.37-3.26-3.57-6-5.09-9.2-2.26-4.71-3-10.25-5.74-14.65a17.4,17.4,0,0,0-15.44-7.87c-5.85.16-9.67,7.56-12.56,12.47-6.41,10.91-11.17,25.17-7.24,37.1C409.49,248,416.89,253.76,425,255Z"></path></g></g></g></svg>