<svg xmlns="http://www.w3.org/2000/svg" xmlns:xlink="http://www.w3.org/1999/xlink" viewBox="0 0 610.9 697.91"><defs><style>.b06258ec-5d2d-4837-bc44-ad740d67383a,.b735d01a-3960-4b51-b17b-1e040e2879b0,.e115f19a-609f-4824-bb8a-a64d14a0eaf7{fill:none;}.b51e6470-fbea-40a7-a237-cd11a65f2e59{isolation:isolate;}.a075daf1-dbe8-4c61-ad49-1c3f0dbdac6d,.b5b81d39-aae0-4e79-9d19-c6e5e93df139,.e8b7e56b-9abe-47d6-a9a5-24734c486d7e{mix-blend-mode:multiply;}.b5b81d39-aae0-4e79-9d19-c6e5e93df139{fill:url(#f2e0a2a4-5646-455d-84c9-636f7a98f596);}.b4e372c6-e6c0-408a-91c0-1b747b727cc0{fill:url(#e6e1a252-ffa0-4c1e-9f3d-73a11fe4afe0);}.b02c1bdd-d2ae-4939-959e-cc609084af01{fill:url(#f84b98a3-b811-4de8-8224-4a1dcaa3b1f2);}.a5d4baee-87bb-4378-a23b-d38b27bf31ec,.b9f3373e-ac1d-42ce-b685-a9a54eadef56,.e8b7e56b-9abe-47d6-a9a5-24734c486d7e{opacity:0.75;}.b9f3373e-ac1d-42ce-b685-a9a54eadef56{fill:url(#b31aa791-2a40-47a1-8b23-e8f9ce808152);}.bfe973f3-b05b-454f-af4e-34f5b3106402{fill:url(#a587ae42-6112-4a55-bf61-ffe673751f53);}.e2aafae1-a7ad-4370-a7ca-1be660b08b34{fill:url(#b386a993-76e8-4c68-8427-26fad067a451);}.b16b532c-61cc-4376-85bb-e7a6f35c5e5d,.e8b7e56b-9abe-47d6-a9a5-24734c486d7e{fill:#733f91;}.bd45dc01-0060-449c-b639-88bff5bd96f5{fill:#b2d5ee;}.aa74f010-3f60-4e42-b050-8f17911a4702{opacity:0.63;}.e6838336-1911-4671-b441-4c585c4d96d0{fill:#fff;}.a4d8de75-138d-4ccc-a1fd-0c0dacdba214{clip-path:url(#f96c4b15-444c-43f0-984d-dbd783dcf8b4);}.a5d4baee-87bb-4378-a23b-d38b27bf31ec{fill:url(#eec0cace-3acf-49e5-b831-836696bb2cfb);}.be769e5c-66e5-4194-826c-c655888ee5b1{opacity:0.52;}.e0384b3e-a420-454f-853b-91f1fb03dad4{clip-path:url(#aec73021-7bd3-40b0-a793-ab3a08769da3);}.b735d01a-3960-4b51-b17b-1e040e2879b0,.e115f19a-609f-4824-bb8a-a64d14a0eaf7{stroke:#edeef0;stroke-linecap:round;stroke-miterlimit:10;}.e115f19a-609f-4824-bb8a-a64d14a0eaf7{stroke-width:3px;}.b735d01a-3960-4b51-b17b-1e040e2879b0{stroke-width:2.46px;}.a075daf1-dbe8-4c61-ad49-1c3f0dbdac6d{opacity:0.38;}.b16b532c-61cc-4376-85bb-e7a6f35c5e5d{opacity:0.53;}</style><radialGradient id="f2e0a2a4-5646-455d-84c9-636f7a98f596" cx="305.45" cy="317.23" r="305.45" gradientUnits="userSpaceOnUse"><stop offset="0.47" stop-color="#c4a08f"></stop><stop offset="0.57" stop-color="#c5a191" stop-opacity="0.98"></stop><stop offset="0.65" stop-color="#c8a696" stop-opacity="0.94"></stop><stop offset="0.72" stop-color="#cdae9f" stop-opacity="0.85"></stop><stop offset="0.78" stop-color="#d3b9ac" stop-opacity="0.74"></stop><stop offset="0.84" stop-color="#dcc7bd" stop-opacity="0.59"></stop><stop offset="0.9" stop-color="#e7d9d2" stop-opacity="0.4"></stop><stop offset="0.96" stop-color="#f4edea" stop-opacity="0.19"></stop><stop offset="1" stop-color="#fff" stop-opacity="0"></stop></radialGradient><radialGradient id="e6e1a252-ffa0-4c1e-9f3d-73a11fe4afe0" cx="310.89" cy="325.98" r="292.12" gradientTransform="translate(0 25.53) scale(1 0.92)" gradientUnits="userSpaceOnUse"><stop offset="0.84" stop-color="#e6dbce"></stop><stop offset="0.85" stop-color="#e7dcd0" stop-opacity="0.96"></stop><stop offset="0.88" stop-color="#eae0d5" stop-opacity="0.86"></stop><stop offset="0.91" stop-color="#eee6dd" stop-opacity="0.69"></stop><stop offset="0.94" stop-color="#f4efe9" stop-opacity="0.45"></stop><stop offset="0.98" stop-color="#fbfaf8" stop-opacity="0.15"></stop><stop offset="1" stop-color="#fff" stop-opacity="0"></stop></radialGradient><linearGradient id="f84b98a3-b811-4de8-8224-4a1dcaa3b1f2" x1="310.92" y1="606" x2="310.96" y2="606" gradientUnits="userSpaceOnUse"><stop offset="0.42" stop-color="#dccdd8"></stop><stop offset="0.43" stop-color="#dfd2dc"></stop><stop offset="0.52" stop-color="#f1ebef"></stop><stop offset="0.61" stop-color="#fbfafb"></stop><stop offset="0.67" stop-color="#fff"></stop></linearGradient><linearGradient id="b31aa791-2a40-47a1-8b23-e8f9ce808152" x1="62.93" y1="287.59" x2="551.97" y2="287.59" gradientUnits="userSpaceOnUse"><stop offset="0" stop-color="#9bcfef" stop-opacity="0.5"></stop><stop offset="0.98" stop-color="#8f549e"></stop></linearGradient><linearGradient id="a587ae42-6112-4a55-bf61-ffe673751f53" x1="311.13" y1="202.49" x2="311.13" y2="202.3" gradientUnits="userSpaceOnUse"><stop offset="0" stop-color="#fff"></stop><stop offset="0.16" stop-color="#fff" stop-opacity="0.97"></stop><stop offset="0.41" stop-color="#fff" stop-opacity="0.89"></stop><stop offset="0.71" stop-color="#fff" stop-opacity="0.75"></stop><stop offset="1" stop-color="#fff" stop-opacity="0.6"></stop></linearGradient><linearGradient id="b386a993-76e8-4c68-8427-26fad067a451" x1="306.8" y1="365.15" x2="306.8" y2="193.72" xlink:href="#a587ae42-6112-4a55-bf61-ffe673751f53"></linearGradient><clipPath id="f96c4b15-444c-43f0-984d-dbd783dcf8b4"><path class="b06258ec-5d2d-4837-bc44-ad740d67383a" d="M367.39,318.16c19.07-9.52,26.8-29.14,17.27-43.81S352,255.5,332.89,265s-26.79,29.14-17.27,43.81S348.33,327.67,367.39,318.16Zm2.71-42.66c.31-1,.66-2.56,1.88-2.95a4.28,4.28,0,0,1,3.73.39,26.9,26.9,0,0,1,2.09,2.18c.52.46,1.15.8,1.64,1.28a6.74,6.74,0,0,1,1.52,3.44A2.36,2.36,0,0,1,381,281a2.68,2.68,0,0,1-.47.92,6,6,0,0,1-4.31,2.78,5.68,5.68,0,0,1-5.42-2.27C369.29,280.57,369.42,277.8,370.1,275.5Z"></path></clipPath><linearGradient id="eec0cace-3acf-49e5-b831-836696bb2cfb" x1="62.93" y1="279.44" x2="551.97" y2="279.44" xlink:href="#b31aa791-2a40-47a1-8b23-e8f9ce808152"></linearGradient><clipPath id="aec73021-7bd3-40b0-a793-ab3a08769da3"><path class="b06258ec-5d2d-4837-bc44-ad740d67383a" d="M238.86,326.76s37.77-1.22,57.2,3.51c28.81,7,55.38,14.59,83.2.42,3.66-1.86,32.48-19.07,34.21-23.09L395.6,271.51l-.91-1.84L392,264.24l-2.82-5.7s0,0,0,0l-1.39-2.81-1-2-4.59-9.27h0l-1.64-3.31a0,0,0,0,1,0,0l-.14-.28c-18-2.61-49,1.63-87.28,30.57-38.66,29.21-75.11.06-75.11.06l-.6,1.23c-.68,1.37-1.33,2.7-2,4l-6.37,12.92-.07.15-3.64,7.38c-.44.88-.86,1.74-1.27,2.58l-8.79,17.81c-.24.49-.47,1-.7,1.41l-1.27,2.58c-.27.54-.51,1-.73,1.49l-.51,1-1,2.11-.25.5-.07.16,0,.07C205.23,336.28,238.86,326.76,238.86,326.76Zm94-61.74c19.06-9.52,42.24-5.34,51.77,9.33s1.8,34.29-17.27,43.81-42.24,5.34-51.77-9.33S313.82,274.54,332.89,265Z"></path></clipPath></defs><g class="b51e6470-fbea-40a7-a237-cd11a65f2e59"><g id="bdf59efe-1026-47bc-91b4-e1756293d62f" data-name="Capa 2"><g id="f865a238-70a3-47ee-8425-144c7f224d5c" data-name="Capa 5"><circle class="b5b81d39-aae0-4e79-9d19-c6e5e93df139" cx="305.45" cy="317.23" r="305.45"></circle><path class="b4e372c6-e6c0-408a-91c0-1b747b727cc0" d="M527.34,334.85c-7-56.77-32.39-122.92-74-171.43-5.3-6.18-8.86-13.12-13.25-20.15a27.19,27.19,0,0,1-2.92-8.61l11-41.44c3.52-12.38,6.53-23,6.53-23l-2.7.24c0-.08,0-.16.05-.24h3.69V0H170.18V69.26a1.44,1.44,0,0,0,0,1s6.09,21.48,11.07,38.94c.08.65.16,1.29.23,1.94a2,2,0,0,0,.05.24l5.89,19.24c2,6.45-4.93,16.59-4.93,16.59h0c-31,34.39-60.89,84.06-75.75,124-13,34.92-20,74.44-16.56,110.7,4.89,52.16,18.48,103.38,36.35,154,3.21,9.15,6.34,18.32,9.11,27.54.59,1.93,6.2,18.54,8.17,24.5,4.44,13.48,14.32,50.65,24.42,88.57C179,717,303.59,691,303.61,672.81c0-37.1.08-69.78.13-83,.09-21.18-.49-42.36-.2-63.54.61-44.47,1.08,8.3.52-38.37-.15-12.5-.15-26.11-3.58-38.21-2.75-9.74-12.63-16.45-21.15-21a98.21,98.21,0,0,1-20.19-14.83,1.41,1.41,0,0,1,1.77-2.19c13,8.63,27,15.89,49.07,15.65,28.47-.32,43.13-13,58.47-25.63a1.41,1.41,0,0,1,1.69-.1l.76.49a1.4,1.4,0,0,1,.08,2.29c-12.86,9.82-24.82,20.27-39.13,29.09-7,4.33-12.63,9.69-14.33,17.94-2.83,13.74-4.37,28.4-3.2,42.41.74,8.79,1.49,95.08,2.08,180.79.17,24.59,138.54,34.16,141.88,2.59,1.69-16,3.35-28.73,4.07-30.08a1.42,1.42,0,0,0,.14-.36c3.86-15.88,7-31.87,11.75-47.62,15-49.86,31.49-99.5,45.9-149.44C531.07,411.79,532,373.22,527.34,334.85Zm-208-165.2a2.24,2.24,0,0,1-.74.37c-4.78,2.11-9.48,3.43-17.51,1.44-1.2-.3-1.74-1.71-.66-2.38,2.87-1.78,5.12-3.19,7.59-3.4,3.85-.32,8.14,1.88,12.24,3C320,169,319.69,169.31,319.39,169.65Z"></path><path class="b02c1bdd-d2ae-4939-959e-cc609084af01" d="M310.93,606s0,0,0,0S311,606,310.93,606Z"></path><rect class="b9f3373e-ac1d-42ce-b685-a9a54eadef56" x="62.93" y="107.65" width="489.03" height="359.88" rx="48.81"></rect><path class="bfe973f3-b05b-454f-af4e-34f5b3106402" d="M315.4,202.3q-4.18.19-8.54.19v-.19Z"></path><path class="e2aafae1-a7ad-4370-a7ca-1be660b08b34" d="M422.93,326.69A78.08,78.08,0,0,1,402.67,343c-15.74,9.21-36.68,16.12-60.54,19.6q-2.73.35-5.49.63c-10.05,1.09-20.13,1.79-29.78,1.88H306a244.85,244.85,0,0,1-29.25-1.78c-26.12-3.17-49.06-10.43-66-20.33a77.88,77.88,0,0,1-20.13-16.2l42.44-86,3.37-6.86,2.06-4.17,1.23-2.49,1.41-2.85,1.5-3,3.47-7,5.93-12,4.23-8.58c4.5,2.62,11.64,4.83,20.46,6.38,3.12.55,6.47,1,10,1.38s7.4.65,11.33.82q4.23.19,8.66.19h.12q4.35,0,8.54-.19a167.8,167.8,0,0,0,18.6-1.77h0c.88-.13,1.76-.28,2.6-.42,8.82-1.54,15.95-3.75,20.46-6.36l4.24,8.55,3.65,7.37.21.44h0l1.39,2.79,5.93,12,8,16.19a0,0,0,0,0,0,0l1.64,3.31h0l4.59,9.27,1,2,1.39,2.81s0,0,0,0l2.82,5.7,2.69,5.43.91,1.84Z"></path><path class="e8b7e56b-9abe-47d6-a9a5-24734c486d7e" d="M376.26,284.66a6,6,0,0,0,4.31-2.78A2.77,2.77,0,0,0,381,281a2.36,2.36,0,0,0-.08-1.12,6.74,6.74,0,0,0-1.52-3.44c-.49-.48-1.12-.82-1.64-1.28a26.9,26.9,0,0,0-2.09-2.18,4.28,4.28,0,0,0-3.73-.39c-1.22.39-1.57,1.92-1.88,2.95-.68,2.3-.81,5.07.74,6.89A5.68,5.68,0,0,0,376.26,284.66Z"></path><path class="e8b7e56b-9abe-47d6-a9a5-24734c486d7e" d="M328.7,292.74c-1.74.61-2,2.15-2.52,3.74a3,3,0,0,0-.23,1,2.55,2.55,0,0,0,.35,1.07c.57,1.13.19,2.31,1.3,3,.59.35,1.29.53,1.89.85a27.42,27.42,0,0,0,2.56,1.61,4.31,4.31,0,0,0,3.71-.51c1.09-.68,1.07-2.25,1.12-3.32.11-2.39-.74-3.65-2.68-5C332,293.57,330.36,292,328.7,292.74Z"></path><path class="bd45dc01-0060-449c-b639-88bff5bd96f5" d="M306.86,202.3v.19q4.35,0,8.54-.19Z"></path><path class="bd45dc01-0060-449c-b639-88bff5bd96f5" d="M204.07,299.68c.41-.84.83-1.7,1.27-2.58Z"></path><path class="bd45dc01-0060-449c-b639-88bff5bd96f5" d="M215.42,276.65c.65-1.3,1.3-2.63,2-4Z"></path><path class="bd45dc01-0060-449c-b639-88bff5bd96f5" d="M209,289.72l.07-.15Z"></path><path class="bd45dc01-0060-449c-b639-88bff5bd96f5" d="M190.71,326.76l.07-.16Z"></path><path class="bd45dc01-0060-449c-b639-88bff5bd96f5" d="M191,326.1l1-2.11Z"></path><path class="bd45dc01-0060-449c-b639-88bff5bd96f5" d="M192.58,323c.22-.45.46-1,.73-1.49Z"></path><path class="bd45dc01-0060-449c-b639-88bff5bd96f5" d="M194.58,318.9c.23-.45.46-.92.7-1.41Z"></path><g class="aa74f010-3f60-4e42-b050-8f17911a4702"><path class="e6838336-1911-4671-b441-4c585c4d96d0" d="M190.78,326.6l.25-.5C190.93,326.32,190.84,326.49,190.78,326.6Z"></path></g><g class="aa74f010-3f60-4e42-b050-8f17911a4702"><path class="e6838336-1911-4671-b441-4c585c4d96d0" d="M192.07,324l.51-1C192.39,323.34,192.23,323.68,192.07,324Z"></path></g><g class="aa74f010-3f60-4e42-b050-8f17911a4702"><path class="e6838336-1911-4671-b441-4c585c4d96d0" d="M190.68,326.83l0-.07Z"></path></g><g class="aa74f010-3f60-4e42-b050-8f17911a4702"><path class="e6838336-1911-4671-b441-4c585c4d96d0" d="M193.31,321.48l1.27-2.58C194.11,319.86,193.69,320.72,193.31,321.48Z"></path></g><g class="aa74f010-3f60-4e42-b050-8f17911a4702"><path class="e6838336-1911-4671-b441-4c585c4d96d0" d="M380.54,241.08l1.64,3.31h0l4.59,9.27,1,2,1.39,2.81s0,0,0,0l2.82,5.7,2.69,5.43.91,1.84,17.87,36.09a.68.68,0,0,0,.07-.54l-33.15-66.27h0l.14.28A0,0,0,0,0,380.54,241.08Z"></path></g><g class="aa74f010-3f60-4e42-b050-8f17911a4702"><path class="e6838336-1911-4671-b441-4c585c4d96d0" d="M209.05,289.57l6.37-12.92Q212,283.7,209.05,289.57Z"></path></g><g class="aa74f010-3f60-4e42-b050-8f17911a4702"><path class="e6838336-1911-4671-b441-4c585c4d96d0" d="M218,271.42l-.6,1.23.6-1.23Z"></path></g><g class="aa74f010-3f60-4e42-b050-8f17911a4702"><path class="e6838336-1911-4671-b441-4c585c4d96d0" d="M205.34,297.1l3.64-7.38Z"></path></g><g class="aa74f010-3f60-4e42-b050-8f17911a4702"><path class="e6838336-1911-4671-b441-4c585c4d96d0" d="M195.28,317.49l8.79-17.81C200.19,307.53,197.34,313.32,195.28,317.49Z"></path></g><g class="a4d8de75-138d-4ccc-a1fd-0c0dacdba214"><rect class="a5d4baee-87bb-4378-a23b-d38b27bf31ec" x="62.93" y="138.47" width="489.03" height="281.93" rx="43.2"></rect></g><g class="be769e5c-66e5-4194-826c-c655888ee5b1"><g class="e0384b3e-a420-454f-853b-91f1fb03dad4"><rect class="a5d4baee-87bb-4378-a23b-d38b27bf31ec" x="62.93" y="138.47" width="489.03" height="281.93" rx="43.2"></rect></g></g><line class="e115f19a-609f-4824-bb8a-a64d14a0eaf7" x1="89.32" y1="166.05" x2="124.01" y2="166.05"></line><line class="b735d01a-3960-4b51-b17b-1e040e2879b0" x1="89.32" y1="194.4" x2="112.58" y2="194.4"></line><line class="b735d01a-3960-4b51-b17b-1e040e2879b0" x1="89.32" y1="222.74" x2="112.58" y2="222.74"></line><line class="b735d01a-3960-4b51-b17b-1e040e2879b0" x1="89.32" y1="251.09" x2="112.58" y2="251.09"></line><line class="e115f19a-609f-4824-bb8a-a64d14a0eaf7" x1="89.32" y1="279.44" x2="124.01" y2="279.44"></line><line class="b735d01a-3960-4b51-b17b-1e040e2879b0" x1="89.32" y1="307.78" x2="112.58" y2="307.78"></line><line class="b735d01a-3960-4b51-b17b-1e040e2879b0" x1="89.32" y1="336.13" x2="112.58" y2="336.13"></line><line class="b735d01a-3960-4b51-b17b-1e040e2879b0" x1="89.32" y1="364.48" x2="112.58" y2="364.48"></line><line class="e115f19a-609f-4824-bb8a-a64d14a0eaf7" x1="89.32" y1="392.82" x2="124.01" y2="392.82"></line><g class="a075daf1-dbe8-4c61-ad49-1c3f0dbdac6d"><path class="b16b532c-61cc-4376-85bb-e7a6f35c5e5d" d="M366.71,299.44c2.45,7-9,9.9-10.17,3.27a6.36,6.36,0,0,1,.29-3.68C358.88,294.17,365.24,295.27,366.71,299.44Z"></path></g><g class="a075daf1-dbe8-4c61-ad49-1c3f0dbdac6d"><path class="b16b532c-61cc-4376-85bb-e7a6f35c5e5d" d="M352.26,278.26c2.45,7-10.65,9.91-11.83,3.28a6.45,6.45,0,0,1,.29-3.68C342.77,273,350.8,274.09,352.26,278.26Z"></path></g></g></g></g></svg>