<svg xmlns="http://www.w3.org/2000/svg" xmlns:xlink="http://www.w3.org/1999/xlink" viewBox="0 0 611.65 857.3"><defs><style>.b1de496c-eda1-44c2-917e-215d89e231c0{isolation:isolate;}.a01af88e-0ff3-4bf0-a4dc-42046c7e9c5f,.a833e294-b82f-4fa3-8df7-c354bf1f43c0,.ab1cd220-fcef-431c-9757-07828c0a6aed,.bd227467-eff4-4e05-bd51-7fafec18bc2f,.f329f891-210f-4679-b27a-47db4f8ecc13,.f5e1bcbd-003b-452b-93ef-9003d788f1d9{mix-blend-mode:multiply;}.a3800a10-db4e-417f-9f99-d2afc94bbafb{fill:url(#a7f9408c-446b-4acb-b2af-acc229f24372);}.ab1cd220-fcef-431c-9757-07828c0a6aed{opacity:0.46;}.baeea3ae-6b20-4e9d-925e-7f909cc8857f{fill:url(#b8432063-6e09-485d-96a2-4332ac0d741c);}.ed3c5c42-a126-47a2-b34d-cf2b5218f061{fill:#fefefe;}.a1847386-5f2f-4ee5-ac8c-a7d73eecef44{fill:#e3e5e7;}.a833e294-b82f-4fa3-8df7-c354bf1f43c0{opacity:0.63;fill:url(#a7c96b7d-06c4-424e-94ae-f0c3da04264d);}.a6303bf8-f137-41af-98ce-bb8bd490cbef{opacity:0.57;}.a01af88e-0ff3-4bf0-a4dc-42046c7e9c5f{fill:#d4d4d6;}.a6bba3c5-e351-4af7-9516-9c4e0f94ee80{fill:url(#e0ca1916-3dce-4a85-8c2a-4fcb4b7b9f1e);}.ff99681c-e5ef-4bf1-bc42-61a17ec65782{fill:url(#a569e483-d665-4e2a-9f48-5c46a511b477);}.a0de489a-f085-4e43-95f1-c408c2f4d446{fill:url(#b07d24a1-8d64-434d-8e2d-fde928c8b865);}.e0f9d42d-2c07-4f65-9aef-844c58aade66{fill:url(#a493da7d-df2d-446f-bba2-c894e6323dfe);}.e67a5a44-546f-4f94-874e-d75fa2b11512{fill:url(#f56ba273-ac09-47ab-b908-f118354da180);}.bc322f0f-c763-4cbd-b051-98fda7fd029d{fill:url(#b04de706-f500-4868-a3a5-67becb4eb3ca);}.abefb20d-fc77-47d6-96f9-ef34458114db{fill:url(#baec298d-6385-4a29-870b-4a0566b91dc4);}.ad5eecd7-06aa-4cc8-a256-bd46aa8dd230{fill:url(#a6f87b3a-162b-40b5-b073-8e4ee29ddf0e);}.bf74fef3-4426-4ed5-a31d-2f331c1b216b{fill:url(#b9a1d27c-d411-4e68-89e5-c5a109eae249);}.a36c72f6-cfc4-45d7-bbab-1c22764a6f26{fill:url(#ef28d923-a342-4990-9c53-1d7c0c894fe5);}.b8fb2797-9950-40d6-a4cf-1f93e3e8a3ea{opacity:0.23;}.f329f891-210f-4679-b27a-47db4f8ecc13,.fa2e7b9f-d6c7-458d-b14a-9797e285a42c{fill:#ffb6b0;}.bbcb4df6-751f-4aa9-b902-0de25f8aa07f{opacity:0.1;}.b685debe-0a3b-4a76-aa8b-9a5d8f69bd9e{opacity:0.08;}.f5e1bcbd-003b-452b-93ef-9003d788f1d9{fill:#fff;}.ae62dad7-b441-40c9-a062-1d8184c4b337{fill:#b57ca4;}.a5ce0db3-3213-4f90-91a2-d08cc64be1b2{fill:#fae9f7;opacity:0.24;}.fa2e7b9f-d6c7-458d-b14a-9797e285a42c{opacity:0.35;}</style><radialGradient id="a7f9408c-446b-4acb-b2af-acc229f24372" cx="4021.47" cy="418.53" r="285.15" gradientTransform="translate(-90.41 4463.19) rotate(-90)" gradientUnits="userSpaceOnUse"><stop offset="0" stop-color="#b283ba" stop-opacity="0.8"></stop><stop offset="0.28" stop-color="#b385bb" stop-opacity="0.79"></stop><stop offset="0.44" stop-color="#b78cbf" stop-opacity="0.74"></stop><stop offset="0.58" stop-color="#bf97c5" stop-opacity="0.67"></stop><stop offset="0.69" stop-color="#c9a8cf" stop-opacity="0.56"></stop><stop offset="0.79" stop-color="#d6bdda" stop-opacity="0.42"></stop><stop offset="0.89" stop-color="#e7d8e9" stop-opacity="0.25"></stop><stop offset="0.98" stop-color="#faf6fa" stop-opacity="0.06"></stop><stop offset="1" stop-color="#fff" stop-opacity="0"></stop></radialGradient><radialGradient id="b8432063-6e09-485d-96a2-4332ac0d741c" cx="4088.15" cy="460.22" r="243.21" gradientTransform="translate(-90.41 4463.19) rotate(-90)" gradientUnits="userSpaceOnUse"><stop offset="0" stop-color="#b8dbf4" stop-opacity="0.8"></stop><stop offset="0.26" stop-color="#b9dbf4" stop-opacity="0.79"></stop><stop offset="0.41" stop-color="#bcddf5" stop-opacity="0.76"></stop><stop offset="0.53" stop-color="#c1e0f5" stop-opacity="0.7"></stop><stop offset="0.63" stop-color="#c8e3f7" stop-opacity="0.62"></stop><stop offset="0.73" stop-color="#d1e8f8" stop-opacity="0.51"></stop><stop offset="0.82" stop-color="#ddeefa" stop-opacity="0.38"></stop><stop offset="0.9" stop-color="#ebf5fc" stop-opacity="0.23"></stop><stop offset="0.98" stop-color="#fafcfe" stop-opacity="0.06"></stop><stop offset="1" stop-color="#fff" stop-opacity="0"></stop></radialGradient><radialGradient id="a7c96b7d-06c4-424e-94ae-f0c3da04264d" cx="-711.16" cy="424.71" r="305.45" gradientTransform="translate(694.64 -145.1) scale(0.44 1.4)" gradientUnits="userSpaceOnUse"><stop offset="0.24" stop-color="#cf948d" stop-opacity="0.7"></stop><stop offset="0.34" stop-color="#d8a7a1" stop-opacity="0.57"></stop><stop offset="0.56" stop-color="#e8cdc9" stop-opacity="0.33"></stop><stop offset="0.75" stop-color="#f5e8e7" stop-opacity="0.15"></stop><stop offset="0.9" stop-color="#fcf9f8" stop-opacity="0.04"></stop><stop offset="1" stop-color="#fff" stop-opacity="0"></stop></radialGradient><linearGradient id="e0ca1916-3dce-4a85-8c2a-4fcb4b7b9f1e" x1="214.04" y1="460.83" x2="231.76" y2="478.55" gradientUnits="userSpaceOnUse"><stop offset="0" stop-color="#733f91"></stop><stop offset="0.01" stop-color="#764293"></stop><stop offset="0.12" stop-color="#8d57a0"></stop><stop offset="0.23" stop-color="#9f68aa"></stop><stop offset="0.38" stop-color="#ac73b1"></stop><stop offset="0.57" stop-color="#b37ab5"></stop><stop offset="1" stop-color="#b57cb6"></stop></linearGradient><linearGradient id="a569e483-d665-4e2a-9f48-5c46a511b477" x1="283.88" y1="420.51" x2="301.6" y2="438.23" xlink:href="#e0ca1916-3dce-4a85-8c2a-4fcb4b7b9f1e"></linearGradient><linearGradient id="b07d24a1-8d64-434d-8e2d-fde928c8b865" x1="247.45" y1="518.7" x2="265.17" y2="536.42" xlink:href="#e0ca1916-3dce-4a85-8c2a-4fcb4b7b9f1e"></linearGradient><linearGradient id="a493da7d-df2d-446f-bba2-c894e6323dfe" x1="317.29" y1="478.38" x2="335.01" y2="496.1" xlink:href="#e0ca1916-3dce-4a85-8c2a-4fcb4b7b9f1e"></linearGradient><linearGradient id="f56ba273-ac09-47ab-b908-f118354da180" x1="180.63" y1="402.96" x2="198.35" y2="420.68" xlink:href="#e0ca1916-3dce-4a85-8c2a-4fcb4b7b9f1e"></linearGradient><linearGradient id="b04de706-f500-4868-a3a5-67becb4eb3ca" x1="250.47" y1="362.64" x2="268.19" y2="380.36" xlink:href="#e0ca1916-3dce-4a85-8c2a-4fcb4b7b9f1e"></linearGradient><linearGradient id="baec298d-6385-4a29-870b-4a0566b91dc4" x1="147.22" y1="345.09" x2="164.94" y2="362.81" xlink:href="#e0ca1916-3dce-4a85-8c2a-4fcb4b7b9f1e"></linearGradient><linearGradient id="a6f87b3a-162b-40b5-b073-8e4ee29ddf0e" x1="217.06" y1="304.77" x2="234.78" y2="322.49" xlink:href="#e0ca1916-3dce-4a85-8c2a-4fcb4b7b9f1e"></linearGradient><linearGradient id="b9a1d27c-d411-4e68-89e5-c5a109eae249" x1="280.86" y1="576.57" x2="298.58" y2="594.29" xlink:href="#e0ca1916-3dce-4a85-8c2a-4fcb4b7b9f1e"></linearGradient><linearGradient id="ef28d923-a342-4990-9c53-1d7c0c894fe5" x1="350.7" y1="536.25" x2="368.42" y2="553.97" xlink:href="#e0ca1916-3dce-4a85-8c2a-4fcb4b7b9f1e"></linearGradient></defs><g class="b1de496c-eda1-44c2-917e-215d89e231c0"><g id="a3877808-d5f8-411a-94ca-241f7733642e" data-name="Capa 2"><g id="ad0454ae-bd4a-4ad3-be05-02208efb58ad" data-name="Capa 5"><g class="bd227467-eff4-4e05-bd51-7fafec18bc2f"><path class="a3800a10-db4e-417f-9f99-d2afc94bbafb" d="M305.82,138.56a304,304,0,0,1,169.34,51.17c82.29,54.78,136.49,148.34,136.49,254.61,0,168.89-136.94,305.82-305.83,305.82S0,613.23,0,444.34A306.07,306.07,0,0,1,171.07,169.81a300.45,300.45,0,0,1,62.8-22.73A305.36,305.36,0,0,1,305.82,138.56Z"></path></g><g class="ab1cd220-fcef-431c-9757-07828c0a6aed"><path class="baeea3ae-6b20-4e9d-925e-7f909cc8857f" d="M350.8,116.47A260.88,260.88,0,0,1,611.65,377.28c0,144.05-116.8,260.85-260.85,260.85S90,521.33,90,377.28A261.08,261.08,0,0,1,235.86,143.12a256.26,256.26,0,0,1,53.57-19.38A260.3,260.3,0,0,1,350.8,116.47Z"></path></g><rect class="ed3c5c42-a126-47a2-b34d-cf2b5218f061" x="172.72" y="257.75" width="193.04" height="368.52" rx="4.31" transform="translate(-184.93 193.84) rotate(-30)"></rect><rect class="a1847386-5f2f-4ee5-ac8c-a7d73eecef44" x="172.72" y="257.75" width="193.04" height="368.52" rx="4.31" transform="translate(-184.93 193.84) rotate(-30)"></rect><ellipse class="a833e294-b82f-4fa3-8df7-c354bf1f43c0" cx="376.11" cy="428.65" rx="134.52" ry="428.65"></ellipse><g class="a6303bf8-f137-41af-98ce-bb8bd490cbef"><path class="a01af88e-0ff3-4bf0-a4dc-42046c7e9c5f" d="M330.27,564.83a10.09,10.09,0,0,0-13.78-3.7L299,571.22h0l-17.3,10a10.09,10.09,0,1,0,10.09,17.48l17.47-10.09h0l17.31-10A10.08,10.08,0,0,0,330.27,564.83Z"></path><path class="a01af88e-0ff3-4bf0-a4dc-42046c7e9c5f" d="M400.11,524.5a10.09,10.09,0,0,0-13.78-3.69L368.85,530.9h0l-17.3,10a10.09,10.09,0,1,0,10.09,17.48l17.47-10.09h0l17.31-10A10.1,10.1,0,0,0,400.11,524.5Z"></path><path class="a01af88e-0ff3-4bf0-a4dc-42046c7e9c5f" d="M366.7,466.63a10.1,10.1,0,0,0-13.78-3.69L335.44,473h0l-17.3,10a10.09,10.09,0,1,0,10.09,17.48l17.47-10.09h0l17.31-10A10.1,10.1,0,0,0,366.7,466.63Z"></path><path class="a01af88e-0ff3-4bf0-a4dc-42046c7e9c5f" d="M296.86,507a10.09,10.09,0,0,0-13.78-3.7L265.6,513.35h0l-17.3,10a10.09,10.09,0,1,0,10.09,17.48l17.47-10.09h0l17.31-10A10.08,10.08,0,0,0,296.86,507Z"></path><path class="a01af88e-0ff3-4bf0-a4dc-42046c7e9c5f" d="M263.45,449.09a10.09,10.09,0,0,0-13.78-3.7l-17.48,10.09h0l-17.3,10A10.09,10.09,0,1,0,225,483l17.47-10.09h0l17.31-10A10.09,10.09,0,0,0,263.45,449.09Z"></path><path class="a01af88e-0ff3-4bf0-a4dc-42046c7e9c5f" d="M230,391.22a10.09,10.09,0,0,0-13.78-3.7l-17.48,10.09h0l-17.3,10a10.09,10.09,0,1,0,10.09,17.47L209,415h0l17.31-10A10.09,10.09,0,0,0,230,391.22Z"></path><path class="a01af88e-0ff3-4bf0-a4dc-42046c7e9c5f" d="M333.29,408.77a10.09,10.09,0,0,0-13.78-3.7L302,415.16h0l-17.31,10a10.09,10.09,0,0,0,10.09,17.48l17.48-10.09h0l17.31-10A10.09,10.09,0,0,0,333.29,408.77Z"></path><path class="a01af88e-0ff3-4bf0-a4dc-42046c7e9c5f" d="M299.88,350.9a10.09,10.09,0,0,0-13.78-3.7l-17.48,10.09h0l-17.31,10a10.09,10.09,0,0,0,10.09,17.48l17.48-10.09h0l17.31-10A10.09,10.09,0,0,0,299.88,350.9Z"></path><path class="a01af88e-0ff3-4bf0-a4dc-42046c7e9c5f" d="M266.47,293a10.09,10.09,0,0,0-13.78-3.7l-17.48,10.09h0l-17.31,10A10.09,10.09,0,0,0,228,326.89l17.48-10.09h0l17.31-10A10.09,10.09,0,0,0,266.47,293Z"></path><path class="a01af88e-0ff3-4bf0-a4dc-42046c7e9c5f" d="M196.63,333.35a10.08,10.08,0,0,0-13.78-3.69l-17.48,10.09h0l-17.31,10a10.09,10.09,0,1,0,10.09,17.47l17.48-10.09h0l17.31-10A10.09,10.09,0,0,0,196.63,333.35Z"></path></g><path class="ed3c5c42-a126-47a2-b34d-cf2b5218f061" d="M363.7,464.63a10.09,10.09,0,0,0-13.78-3.69L332.44,471l10.09,17.48L360,478.42A10.1,10.1,0,0,0,363.7,464.63Z"></path><path class="ed3c5c42-a126-47a2-b34d-cf2b5218f061" d="M260.45,447.09a10.09,10.09,0,0,0-13.78-3.7l-17.48,10.09L239.28,471l17.48-10.09A10.09,10.09,0,0,0,260.45,447.09Z"></path><path class="ed3c5c42-a126-47a2-b34d-cf2b5218f061" d="M330.29,406.77a10.09,10.09,0,0,0-13.78-3.7L299,413.16l10.09,17.48,17.48-10.09A10.09,10.09,0,0,0,330.29,406.77Z"></path><path class="ed3c5c42-a126-47a2-b34d-cf2b5218f061" d="M293.86,505a10.09,10.09,0,0,0-13.78-3.7L262.6,511.35l10.09,17.48,17.48-10.09A10.08,10.08,0,0,0,293.86,505Z"></path><path class="ed3c5c42-a126-47a2-b34d-cf2b5218f061" d="M227,389.22a10.09,10.09,0,0,0-13.78-3.7l-17.48,10.09,10.09,17.48L223.35,403A10.09,10.09,0,0,0,227,389.22Z"></path><path class="ed3c5c42-a126-47a2-b34d-cf2b5218f061" d="M296.88,348.9a10.09,10.09,0,0,0-13.78-3.7l-17.48,10.09,10.09,17.48,17.48-10.09A10.09,10.09,0,0,0,296.88,348.9Z"></path><path class="ed3c5c42-a126-47a2-b34d-cf2b5218f061" d="M193.63,331.35a10.08,10.08,0,0,0-13.78-3.69l-17.48,10.09,10.09,17.47,17.48-10.09A10.09,10.09,0,0,0,193.63,331.35Z"></path><path class="ed3c5c42-a126-47a2-b34d-cf2b5218f061" d="M263.47,291a10.09,10.09,0,0,0-13.78-3.7l-17.48,10.09L242.3,314.9l17.48-10.09A10.09,10.09,0,0,0,263.47,291Z"></path><path class="ed3c5c42-a126-47a2-b34d-cf2b5218f061" d="M327.27,562.83a10.09,10.09,0,0,0-13.78-3.7L296,569.22,306.1,586.7l17.48-10.09A10.08,10.08,0,0,0,327.27,562.83Z"></path><path class="ed3c5c42-a126-47a2-b34d-cf2b5218f061" d="M397.11,522.5a10.09,10.09,0,0,0-13.78-3.69L365.85,528.9l10.09,17.48,17.48-10.09A10.1,10.1,0,0,0,397.11,522.5Z"></path><path class="a6bba3c5-e351-4af7-9516-9c4e0f94ee80" d="M229.36,453.39l-17.47,10.09A10.09,10.09,0,1,0,222,481l17.47-10.09Z"></path><path class="ff99681c-e5ef-4bf1-bc42-61a17ec65782" d="M299.2,413.06l-17.48,10.09a10.09,10.09,0,0,0,10.09,17.48l17.48-10.09Z"></path><path class="a0de489a-f085-4e43-95f1-c408c2f4d446" d="M262.77,511.25,245.3,521.34a10.09,10.09,0,1,0,10.09,17.48l17.47-10.09Z"></path><path class="e0f9d42d-2c07-4f65-9aef-844c58aade66" d="M332.61,470.93,315.14,481a10.09,10.09,0,1,0,10.09,17.48l17.47-10.09Z"></path><path class="e67a5a44-546f-4f94-874e-d75fa2b11512" d="M196,395.52l-17.47,10.09a10.09,10.09,0,1,0,10.09,17.47L206,413Z"></path><path class="bc322f0f-c763-4cbd-b051-98fda7fd029d" d="M265.79,355.19l-17.48,10.09a10.09,10.09,0,0,0,10.09,17.48l17.48-10.09Z"></path><path class="abefb20d-fc77-47d6-96f9-ef34458114db" d="M162.54,337.65l-17.48,10.09a10.09,10.09,0,1,0,10.09,17.47l17.48-10.09Z"></path><path class="ad5eecd7-06aa-4cc8-a256-bd46aa8dd230" d="M232.38,297.33,214.9,307.42A10.09,10.09,0,0,0,225,324.89l17.48-10.09Z"></path><path class="bf74fef3-4426-4ed5-a31d-2f331c1b216b" d="M296.18,569.12l-17.47,10.09a10.09,10.09,0,1,0,10.09,17.48l17.47-10.09Z"></path><path class="a36c72f6-cfc4-45d7-bbab-1c22764a6f26" d="M366,528.8l-17.47,10.09a10.09,10.09,0,1,0,10.09,17.48l17.47-10.09Z"></path><path class="ed3c5c42-a126-47a2-b34d-cf2b5218f061" d="M398.09,442.42q.12-5.35.25-11.47c-5.16.3-13.8.5-23.58.5h-.05c-9.83,0-18.5-.21-23.64-.51.09,4.09.17,7.91.25,11.49-3.12.18-5,.41-5,.65h0c0,.24,1.88.47,5,.66,5.12.3,13.67.5,23.36.5h.05c9.64,0,18.16-.2,23.3-.5a27.94,27.94,0,0,0,4.91-.53,27.79,27.79,0,0,1-5.38.58c-5.16.29-13.49.47-22.87.47s-17.72-.18-22.89-.47c-3.32-.19-5.34-.41-5.49-.66v.69L348,546.39h0l1,58.9h0c0,.22,1.64.42,4.45.59q.12,5.52.22,10.33c-2.8.17-4.45.37-4.48.59h0l.53,32.23h0v.16l.12.08c.91.54,7.12,3.81,24.86,3.81,16.8,0,23.26-3,24.66-3.76.22-.12.32-.19.32-.19v-.1c0-.1,0-.27,0-.52l.52-31.64v-.16a20.89,20.89,0,0,0-4.51-.51q.11-4.82.23-10.32a20.29,20.29,0,0,0,4.46-.52v-.16l1-58.83,1.69-102.49v-.73h0V443A22.43,22.43,0,0,0,398.09,442.42Z"></path><g class="b8fb2797-9950-40d6-a4cf-1f93e3e8a3ea"><path class="f329f891-210f-4679-b27a-47db4f8ecc13" d="M398.09,442.42q.12-5.35.25-11.47c-5.16.3-13.8.5-23.58.5h-.05c-9.83,0-18.5-.21-23.64-.51.09,4.09.17,7.91.25,11.49-3.12.18-5,.41-5,.65h0c0,.24,1.88.47,5,.66,5.12.3,13.67.5,23.36.5h.05c9.64,0,18.16-.2,23.3-.5a22.05,22.05,0,0,0,5-.58V443A22.43,22.43,0,0,0,398.09,442.42Z"></path></g><g class="b8fb2797-9950-40d6-a4cf-1f93e3e8a3ea"><path class="f329f891-210f-4679-b27a-47db4f8ecc13" d="M395.74,616.22q.11-4.82.23-10.32c-4.65.27-12.41.45-21.21.45h0c-8.84,0-16.63-.19-21.26-.46q.12,5.52.22,10.33c-2.8.17-4.45.37-4.48.59h0c0,.22,1.69.42,4.51.59,4.6.27,12.3.46,21,.46h0c8.68,0,16.34-.19,20.95-.46a20.17,20.17,0,0,0,4.53-.52v-.16A20.89,20.89,0,0,0,395.74,616.22Z"></path></g><g class="bbcb4df6-751f-4aa9-b902-0de25f8aa07f"><path class="f329f891-210f-4679-b27a-47db4f8ecc13" d="M395.71,617.41c-4.61.27-12.27.46-20.95.46h0c-8.71,0-16.41-.19-21-.46-2.82-.17-4.48-.37-4.51-.59l.53,32.23h0v.16l.12.08c.91.54,7.12,3.81,24.86,3.81,16.8,0,23.26-3,24.66-3.76.22-.12.32-.19.32-.19v-.1c0-.1,0-.27,0-.52l.52-31.64A20.17,20.17,0,0,1,395.71,617.41Z"></path></g><g class="b685debe-0a3b-4a76-aa8b-9a5d8f69bd9e"><path class="f329f891-210f-4679-b27a-47db4f8ecc13" d="M397.59,443.8c-5.16.29-13.49.47-22.87.47s-17.72-.18-22.89-.47c-3.32-.19-5.34-.41-5.49-.66v.69L348,546.39h0l1,58.9h0c0,.22,1.64.42,4.45.59,4.63.27,12.42.46,21.26.46h0c8.8,0,16.56-.18,21.21-.45a20.29,20.29,0,0,0,4.46-.52v-.16l1-58.83,1.69-102.49v-.76C402.94,443.39,400.92,443.61,397.59,443.8Z"></path></g><path class="f5e1bcbd-003b-452b-93ef-9003d788f1d9" d="M349.73,649.05h0s0,.19.13.24c.91.54,7.12,3.81,24.86,3.81,16.8,0,23.26-3,24.66-3.76.22-.12.32-.19.32-.19v-.1c0-.1,0-.27,0-.52Z"></path><path class="ae62dad7-b441-40c9-a062-1d8184c4b337" d="M399.81,211.59h0l-.07-.07c-.79-.82-8.12-7.95-25-7.95s-24.24,7.13-25,7.95a.43.43,0,0,1-.07.07h0s-3.29,77.44-3.29,218.48V431c0,.25,2,.49,5.5.68,5.16.29,13.49.48,22.89.48s17.72-.19,22.88-.48c3.45-.19,5.5-.43,5.5-.68v-1.55C403.1,288.39,399.81,211.59,399.81,211.59Z"></path><path class="a5ce0db3-3213-4f90-91a2-d08cc64be1b2" d="M374.72,203.56c-16.9,0-24.24,7.13-25,7.95,1-.53,11.81-.95,25-.95s24,.42,25,.95C399,210.69,391.62,203.56,374.72,203.56Z"></path><path class="fa2e7b9f-d6c7-458d-b14a-9797e285a42c" d="M399.81,211.59h0l-.07-.07c-.79-.82-8.12-7.95-25-7.95s-24.24,7.13-25,7.95a.43.43,0,0,1-.07.07h0s-3.29,77.44-3.29,218.48V431c0,.25,2,.49,5.5.68,5.16.29,13.49.48,22.89.48s17.72-.19,22.88-.48c3.45-.19,5.5-.43,5.5-.68v-1.55C403.1,288.39,399.81,211.59,399.81,211.59Z"></path></g></g></g></svg>