<svg xmlns="http://www.w3.org/2000/svg" xmlns:xlink="http://www.w3.org/1999/xlink" viewBox="0 0 610.9 610.9"><defs><style>.e6ef4e5f-409c-4bc2-977f-2d7148698a9c{isolation:isolate;}.b063291b-68f7-4797-9c13-3731e04a32a4,.bc11ce5d-7297-404d-8b4a-b23fa0681a39{mix-blend-mode:multiply;}.bc11ce5d-7297-404d-8b4a-b23fa0681a39{fill:url(#a6d9f4cf-2509-4712-8ee1-259fafb41145);}.e1ad715f-fbba-4eeb-9cea-108379d76e07{opacity:0.9;fill:url(#f55acaa7-d575-4b78-afb2-b3a6c0c69109);}.b063291b-68f7-4797-9c13-3731e04a32a4,.b69a7644-9c17-4cce-9c54-58c34bbb956e{opacity:0.5;}.b69a7644-9c17-4cce-9c54-58c34bbb956e{fill:url(#eecefc94-b24c-4d04-baba-6ef195c9b9fd);}.b063291b-68f7-4797-9c13-3731e04a32a4{fill:url(#e42e83d4-8ea0-4a49-8479-b99845d13014);}.a7b5c328-f156-4547-8acb-5888423862b6{fill:#fff;}.ffd2e42e-2373-4761-bcf7-d5eb849575e9{fill:#a14d91;}</style><radialGradient id="a6d9f4cf-2509-4712-8ee1-259fafb41145" cx="305.45" cy="305.45" r="305.45" gradientUnits="userSpaceOnUse"><stop offset="0.54" stop-color="#cad1e8"></stop><stop offset="0.58" stop-color="#ccd3e9" stop-opacity="0.96"></stop><stop offset="0.64" stop-color="#d2d8eb" stop-opacity="0.85"></stop><stop offset="0.71" stop-color="#dce0f0" stop-opacity="0.67"></stop><stop offset="0.81" stop-color="#e9ecf5" stop-opacity="0.42"></stop><stop offset="0.91" stop-color="#f9fafd" stop-opacity="0.11"></stop><stop offset="0.94" stop-color="#fff" stop-opacity="0"></stop></radialGradient><radialGradient id="f55acaa7-d575-4b78-afb2-b3a6c0c69109" cx="316.74" cy="305.94" r="332.19" gradientUnits="userSpaceOnUse"><stop offset="0" stop-color="#fff"></stop><stop offset="0.3" stop-color="#fff" stop-opacity="0.99"></stop><stop offset="0.4" stop-color="#fff" stop-opacity="0.97"></stop><stop offset="0.48" stop-color="#fff" stop-opacity="0.92"></stop><stop offset="0.54" stop-color="#fff" stop-opacity="0.85"></stop><stop offset="0.6" stop-color="#fff" stop-opacity="0.77"></stop><stop offset="0.64" stop-color="#fff" stop-opacity="0.66"></stop><stop offset="0.68" stop-color="#fff" stop-opacity="0.53"></stop><stop offset="0.72" stop-color="#fff" stop-opacity="0.39"></stop><stop offset="0.76" stop-color="#fff" stop-opacity="0.22"></stop><stop offset="0.79" stop-color="#fff" stop-opacity="0.04"></stop><stop offset="0.8" stop-color="#fff" stop-opacity="0"></stop></radialGradient><radialGradient id="eecefc94-b24c-4d04-baba-6ef195c9b9fd" cx="316.74" cy="305.94" r="332.19" gradientUnits="userSpaceOnUse"><stop offset="0" stop-color="#e6dbce"></stop><stop offset="0.3" stop-color="#e6dbce" stop-opacity="0.99"></stop><stop offset="0.41" stop-color="#e7dcd0" stop-opacity="0.96"></stop><stop offset="0.49" stop-color="#e8ded2" stop-opacity="0.91"></stop><stop offset="0.55" stop-color="#eae1d6" stop-opacity="0.84"></stop><stop offset="0.61" stop-color="#ece4db" stop-opacity="0.74"></stop><stop offset="0.66" stop-color="#efe9e0" stop-opacity="0.62"></stop><stop offset="0.7" stop-color="#f3eee7" stop-opacity="0.48"></stop><stop offset="0.74" stop-color="#f7f4ef" stop-opacity="0.32"></stop><stop offset="0.77" stop-color="#fcfaf8" stop-opacity="0.14"></stop><stop offset="0.8" stop-color="#fff" stop-opacity="0"></stop></radialGradient><radialGradient id="e42e83d4-8ea0-4a49-8479-b99845d13014" cx="317.55" cy="301.51" r="305.45" gradientTransform="translate(170.93 19.8) scale(0.44 1)" gradientUnits="userSpaceOnUse"><stop offset="0.24" stop-color="#cf948d" stop-opacity="0.7"></stop><stop offset="0.34" stop-color="#d8a7a1" stop-opacity="0.57"></stop><stop offset="0.56" stop-color="#e8cdc9" stop-opacity="0.33"></stop><stop offset="0.75" stop-color="#f5e8e7" stop-opacity="0.15"></stop><stop offset="0.9" stop-color="#fcf9f8" stop-opacity="0.04"></stop><stop offset="1" stop-color="#fff" stop-opacity="0"></stop></radialGradient></defs><g class="e6ef4e5f-409c-4bc2-977f-2d7148698a9c"><g id="f1c5f4c3-e1e2-4aba-a785-0152cc2cfbe5" data-name="Capa 2"><g id="a8918cc6-9a61-4eec-a9a9-1e4a33b44605" data-name="Capa 5"><circle class="bc11ce5d-7297-404d-8b4a-b23fa0681a39" cx="305.45" cy="305.45" r="305.45"></circle><path class="e1ad715f-fbba-4eeb-9cea-108379d76e07" d="M520.16,452.67a253.24,253.24,0,0,0,13.09-21.93C488.88,392.06,429.72,335.39,425,304.45c-7.57-50,1.93-74.44-11-99.13-6.17-12.89-17.35-61.17-14.06-102.73,1.12-14.12,1.59-23.5,1.17-29.63q-9.76-3.85-19.89-6.92c-14.47,11.4-34.08,53.51-28.14,80.94,6.73,31.09,6.24,61.94,0,71.37l-32.62-16.27s-67-72-116.83-125.18a255.75,255.75,0,0,0-41.86,23.46c24.44,29.6,51.47,63.08,57,73.41,0,0-4,14.46-13.5,5.11-5-4.95-32.92-35.27-61.46-64.91a257.54,257.54,0,0,0-37,37.8c32.94,35.16,66.8,71.57,66.8,71.57l-1.5,6.5-71.39-70.09a255.48,255.48,0,0,0-23.8,39.4c34.86,36,74,76.12,74,76.12s5.91,11,5.29,20.45l-87.42-78a253.58,253.58,0,0,0-13,45c7.77,7.68,14.33,14,17.31,17.51,6.72,8,96.37,107.76,133.7,137.68s69.95,37.18,123.38,46.84c54.4,9.83,83.07,70.89,83.07,70.89s2.05,2,5.78,5.53A256.83,256.83,0,0,0,520.16,452.67Z"></path><path class="b69a7644-9c17-4cce-9c54-58c34bbb956e" d="M520.16,452.67a253.24,253.24,0,0,0,13.09-21.93C488.88,392.06,429.72,335.39,425,304.45c-7.57-50,1.93-74.44-11-99.13-6.17-12.89-17.35-61.17-14.06-102.73,1.12-14.12,1.59-23.5,1.17-29.63q-9.76-3.85-19.89-6.92c-14.47,11.4-34.08,53.51-28.14,80.94,6.73,31.09,6.24,61.94,0,71.37l-32.62-16.27s-67-72-116.83-125.18a255.75,255.75,0,0,0-41.86,23.46c24.44,29.6,51.47,63.08,57,73.41,0,0-4,14.46-13.5,5.11-5-4.95-32.92-35.27-61.46-64.91a257.54,257.54,0,0,0-37,37.8c32.94,35.16,66.8,71.57,66.8,71.57l-1.5,6.5-71.39-70.09a255.48,255.48,0,0,0-23.8,39.4c34.86,36,74,76.12,74,76.12s5.91,11,5.29,20.45l-87.42-78a253.58,253.58,0,0,0-13,45c7.77,7.68,14.33,14,17.31,17.51,6.72,8,96.37,107.76,133.7,137.68s69.95,37.18,123.38,46.84c54.4,9.83,83.07,70.89,83.07,70.89s2.05,2,5.78,5.53A256.83,256.83,0,0,0,520.16,452.67Z"></path><ellipse class="b063291b-68f7-4797-9c13-3731e04a32a4" cx="305.45" cy="305.45" rx="134.52" ry="305.45"></ellipse><path class="a7b5c328-f156-4547-8acb-5888423862b6" d="M326.59,384.58c.25-17.12,6.79-45.34,7-60,.08-5.2-.8-32.32-1.95-65.1-2.1-59.5-5.13-137.72-5.13-137.72a16.33,16.33,0,1,0-32.65-.46s-5.23,77.88-9,137.27h0s0,.05,0,.07,0,.21,0,.32c-2.07,32.68-3.7,59.68-3.78,64.88-.2,14.65,5.54,43,5.3,60.17s-10.09,46.61-10.45,72c-.23,16.81,2.55,32.63,11,41.74,4.43,5.1,10.53,7.81,17.83,7.92s13.47-2.44,18-7.42c8.74-8.86,12-24.6,12.21-41.4C335.37,431.46,326.35,401.71,326.59,384.58Z"></path><path class="ffd2e42e-2373-4761-bcf7-d5eb849575e9" d="M326.5,121.77a16.33,16.33,0,1,0-32.65-.46s-5.23,77.88-9,137.27a5,5,0,0,1,5-4.39l2.92,0,15.53.22,15.53.22,2.9,0h0a5,5,0,0,1,4.89,4.78C329.53,200,326.5,121.77,326.5,121.77Z"></path><polygon class="ffd2e42e-2373-4761-bcf7-d5eb849575e9" points="294.24 305.38 294.34 298.83 322.14 298.89 322.04 305.44 294.24 305.38"></polygon><polygon class="ffd2e42e-2373-4761-bcf7-d5eb849575e9" points="294.33 323.09 294.44 316.54 322.24 316.6 322.14 323.15 294.33 323.09"></polygon></g></g></g></svg>