<svg xmlns="http://www.w3.org/2000/svg" xmlns:xlink="http://www.w3.org/1999/xlink" viewBox="0 0 727.7 706.22"><defs><style>.aed55294-28e4-4977-8ce2-ff8e7211fd99{fill:none;}.e049f510-a672-4cb8-9fa7-075de6bcb8a3{isolation:isolate;}.b5be31d4-fc1a-40d1-9bba-8a595d7f1846{clip-path:url(#be01a992-17d4-41e9-9c65-00bf3548f0ab);}.a8fad3f3-1092-49f6-99ab-8bb66ebe991b,.b80cabaf-8dd6-4fcf-ac37-aa3dff19c95b{opacity:0.55;}.b80cabaf-8dd6-4fcf-ac37-aa3dff19c95b{fill:url(#ba43a6d0-096d-456b-b200-f7932ebfec9a);}.a44f2a1d-f148-4681-bf4d-49a77bc41e4c,.b91d5eaa-c953-4020-9cf0-52691598dc9d,.b9686567-ad1a-4c7d-af59-cb059de5b312,.bcff7809-af93-43b4-8552-469727be187e,.e9720d8f-7f1a-413c-9635-02e32bc48e2c,.f2b53f7b-6a50-467a-9f64-ac819eab64c6{mix-blend-mode:multiply;}.ed0d6642-9854-4ebc-84d9-5b57f3574a3d{fill:url(#e7683b92-17b8-43cc-988a-11024d718349);}.bcff7809-af93-43b4-8552-469727be187e{opacity:0.46;}.e5c1d001-5793-4d77-a91d-c61d48ea25c1{fill:url(#b423866d-f92b-4c96-b018-b5c071ec4096);}.a44f2a1d-f148-4681-bf4d-49a77bc41e4c{fill:url(#ac4f63de-ebb3-4f5b-975a-a9f53ab7d9b1);}.a82196a3-f0d4-4c9e-82a0-8026ab4d88a5{fill:#fefefe;}.f001e1c5-a547-416a-8752-3d25ee15691a{fill:#b57ca4;}.b2ac10bf-8639-4f77-b880-4f3502c24fff{fill:url(#b6a4fbde-9bbb-4934-967c-754fc29374da);}.aa8c903d-6ce9-435e-b4fa-1e85b404eb41{opacity:0.7;fill:url(#bfb28c74-a3cc-4197-8355-533d7f366007);}.a53ad658-aabe-4c1c-8a93-75ff76b48c5b,.f8422547-0943-471d-9a82-37539ebcd25e{opacity:0.75;}.a53ad658-aabe-4c1c-8a93-75ff76b48c5b{fill:url(#f99ca55e-f579-43d1-a531-3406d9969785);}.f8422547-0943-471d-9a82-37539ebcd25e{fill:url(#b9901307-4a40-4d49-91ee-9883ed1d4bbe);}.e9720d8f-7f1a-413c-9635-02e32bc48e2c{fill:#ebf2f2;opacity:0.65;}.f945c081-107c-4f6f-934a-1eac4907c13e,.fc17f402-85c0-40c8-b55c-d30d734a72c2{fill:#faf9f2;}.f945c081-107c-4f6f-934a-1eac4907c13e{stroke:#fff;stroke-miterlimit:10;stroke-width:2px;}.f2b53f7b-6a50-467a-9f64-ac819eab64c6{fill:url(#be27036e-8614-4253-b5d4-5e0616d86aad);}.a677b6cc-068e-468b-9cfa-92407df143ce{fill:#fff;}.e3059a57-5726-4ab5-b13d-c80b0436ce13{opacity:0.74;}.bab1ce4b-2a8a-4682-a54d-928a18542c5b{fill:#754092;}.b91d5eaa-c953-4020-9cf0-52691598dc9d{fill:#ffb6b0;opacity:0.18;}</style><clipPath id="be01a992-17d4-41e9-9c65-00bf3548f0ab" transform="translate(59.54 9.47)"><rect class="aed55294-28e4-4977-8ce2-ff8e7211fd99" width="610.9" height="610.9"></rect></clipPath><radialGradient id="ba43a6d0-096d-456b-b200-f7932ebfec9a" cx="719.01" cy="-916.08" r="532.52" gradientTransform="translate(-260.5 1052.22) scale(0.87 0.8)" gradientUnits="userSpaceOnUse"><stop offset="0" stop-color="#d4d4d6"></stop><stop offset="0.07" stop-color="#dbdbdd" stop-opacity="0.84"></stop><stop offset="0.18" stop-color="#e6e6e7" stop-opacity="0.59"></stop><stop offset="0.3" stop-color="#efeff0" stop-opacity="0.38"></stop><stop offset="0.4" stop-color="#f6f6f6" stop-opacity="0.21"></stop><stop offset="0.51" stop-color="#fbfbfb" stop-opacity="0.1"></stop><stop offset="0.6" stop-color="#fefefe" stop-opacity="0.02"></stop><stop offset="0.67" stop-color="#fff" stop-opacity="0"></stop></radialGradient><radialGradient id="e7683b92-17b8-43cc-988a-11024d718349" cx="-1367.98" cy="-311.73" r="307.44" gradientTransform="matrix(-0.79, 0.61, -0.61, -0.79, -953.79, 887.76)" gradientUnits="userSpaceOnUse"><stop offset="0" stop-color="#b283ba" stop-opacity="0.8"></stop><stop offset="0.28" stop-color="#b385bb" stop-opacity="0.79"></stop><stop offset="0.44" stop-color="#b78cbf" stop-opacity="0.74"></stop><stop offset="0.58" stop-color="#bf97c5" stop-opacity="0.67"></stop><stop offset="0.69" stop-color="#c9a8cf" stop-opacity="0.56"></stop><stop offset="0.79" stop-color="#d6bdda" stop-opacity="0.42"></stop><stop offset="0.89" stop-color="#e7d8e9" stop-opacity="0.25"></stop><stop offset="0.98" stop-color="#faf6fa" stop-opacity="0.06"></stop><stop offset="1" stop-color="#fff" stop-opacity="0"></stop></radialGradient><radialGradient id="b423866d-f92b-4c96-b018-b5c071ec4096" cx="-1252.02" cy="-313.48" r="285.15" gradientTransform="matrix(-0.79, 0.61, -0.61, -0.79, -953.79, 887.76)" gradientUnits="userSpaceOnUse"><stop offset="0" stop-color="#b8dbf4" stop-opacity="0.8"></stop><stop offset="0.26" stop-color="#b9dbf4" stop-opacity="0.79"></stop><stop offset="0.41" stop-color="#bcddf5" stop-opacity="0.76"></stop><stop offset="0.53" stop-color="#c1e0f5" stop-opacity="0.7"></stop><stop offset="0.63" stop-color="#c8e3f7" stop-opacity="0.62"></stop><stop offset="0.73" stop-color="#d1e8f8" stop-opacity="0.51"></stop><stop offset="0.82" stop-color="#ddeefa" stop-opacity="0.38"></stop><stop offset="0.9" stop-color="#ebf5fc" stop-opacity="0.23"></stop><stop offset="0.98" stop-color="#fafcfe" stop-opacity="0.06"></stop><stop offset="1" stop-color="#fff" stop-opacity="0"></stop></radialGradient><radialGradient id="ac4f63de-ebb3-4f5b-975a-a9f53ab7d9b1" cx="225.09" cy="230.04" r="92.56" gradientTransform="translate(49.1 441.6) rotate(-90)" gradientUnits="userSpaceOnUse"><stop offset="0" stop-color="#c8e3f6"></stop><stop offset="1" stop-color="#fff"></stop></radialGradient><linearGradient id="b6a4fbde-9bbb-4934-967c-754fc29374da" x1="117.75" y1="266.62" x2="250.17" y2="266.62" gradientTransform="translate(504.63 69.13) rotate(90)" gradientUnits="userSpaceOnUse"><stop offset="0" stop-color="#9bcfef" stop-opacity="0.5"></stop><stop offset="0.02" stop-color="#9ac3e7" stop-opacity="0.55"></stop><stop offset="0.1" stop-color="#969acc" stop-opacity="0.71"></stop><stop offset="0.2" stop-color="#937ab7" stop-opacity="0.84"></stop><stop offset="0.33" stop-color="#9164a9" stop-opacity="0.93"></stop><stop offset="0.5" stop-color="#8f58a0" stop-opacity="0.99"></stop><stop offset="0.98" stop-color="#8f549e"></stop></linearGradient><linearGradient id="bfb28c74-a3cc-4197-8355-533d7f366007" x1="117.75" y1="250.72" x2="250.17" y2="250.72" gradientTransform="translate(488.73 85.03) rotate(90)" xlink:href="#b6a4fbde-9bbb-4934-967c-754fc29374da"></linearGradient><linearGradient id="f99ca55e-f579-43d1-a531-3406d9969785" x1="279.14" y1="258.05" x2="279.14" y2="493.88" gradientUnits="userSpaceOnUse"><stop offset="0" stop-color="#9bcfef" stop-opacity="0.5"></stop><stop offset="0.98" stop-color="#8f549e"></stop></linearGradient><linearGradient id="b9901307-4a40-4d49-91ee-9883ed1d4bbe" x1="279.14" y1="493.88" x2="279.14" y2="258.05" xlink:href="#f99ca55e-f579-43d1-a531-3406d9969785"></linearGradient><radialGradient id="be27036e-8614-4253-b5d4-5e0616d86aad" cx="404.01" cy="258.76" r="179.38" gradientUnits="userSpaceOnUse"><stop offset="0" stop-color="#b57cb6"></stop><stop offset="0.39" stop-color="#b57cb6"></stop><stop offset="0.58" stop-color="#b67eb7" stop-opacity="0.99"></stop><stop offset="0.67" stop-color="#b983ba" stop-opacity="0.95"></stop><stop offset="0.74" stop-color="#be8cbf" stop-opacity="0.87"></stop><stop offset="0.8" stop-color="#c69ac7" stop-opacity="0.77"></stop><stop offset="0.85" stop-color="#d0abd0" stop-opacity="0.64"></stop><stop offset="0.9" stop-color="#dcc1dc" stop-opacity="0.48"></stop><stop offset="0.95" stop-color="#eadaea" stop-opacity="0.28"></stop><stop offset="0.99" stop-color="#faf7fa" stop-opacity="0.06"></stop><stop offset="1" stop-color="#fff" stop-opacity="0"></stop></radialGradient></defs><g class="e049f510-a672-4cb8-9fa7-075de6bcb8a3"><g id="b8fdb065-7ad2-41a7-ab4a-2ab995d47ac3" data-name="Capa 2"><g id="a4741a66-69c0-4a73-a2f7-2ee9f3f3a433" data-name="Capa 5"><g class="b5be31d4-fc1a-40d1-9bba-8a595d7f1846"><rect class="b80cabaf-8dd6-4fcf-ac37-aa3dff19c95b" x="59.55" y="9.47" width="611.6" height="610.9"></rect><g class="a8fad3f3-1092-49f6-99ab-8bb66ebe991b"><g class="b9686567-ad1a-4c7d-af59-cb059de5b312"><path class="ed0d6642-9854-4ebc-84d9-5b57f3574a3d" d="M76.77,520.85A327.65,327.65,0,0,1,9.49,342.38C2.38,236,46.89,128.29,137.82,58.58,282.33-52.2,489.32-24.85,600.11,119.67S683.54,471.18,539,582a330,330,0,0,1-347.12,33.7,324.08,324.08,0,0,1-60.64-38.84A328.73,328.73,0,0,1,76.77,520.85Z" transform="translate(59.54 9.47)"></path></g><g class="bcff7809-af93-43b4-8552-469727be187e"><path class="e5c1d001-5793-4d77-a91d-c61d48ea25c1" d="M3.55,577a303.85,303.85,0,0,1-62.4-165.52c-6.6-98.64,34.69-198.57,119-263.22,134-102.75,326-77.38,428.77,56.66s77.38,326-56.65,428.77a306.1,306.1,0,0,1-322,31.25,300.77,300.77,0,0,1-56.24-36A304.66,304.66,0,0,1,3.55,577Z" transform="translate(59.54 9.47)"></path></g></g></g><g class="b5be31d4-fc1a-40d1-9bba-8a595d7f1846"><rect class="b80cabaf-8dd6-4fcf-ac37-aa3dff19c95b" x="59.55" y="9.47" width="611.6" height="610.9"></rect><g class="a8fad3f3-1092-49f6-99ab-8bb66ebe991b"><g class="b9686567-ad1a-4c7d-af59-cb059de5b312"><path class="ed0d6642-9854-4ebc-84d9-5b57f3574a3d" d="M76.77,520.85A327.65,327.65,0,0,1,9.49,342.38C2.38,236,46.89,128.29,137.82,58.58,282.33-52.2,489.32-24.85,600.11,119.67S683.54,471.18,539,582a330,330,0,0,1-347.12,33.7,324.08,324.08,0,0,1-60.64-38.84A328.73,328.73,0,0,1,76.77,520.85Z" transform="translate(59.54 9.47)"></path></g><g class="bcff7809-af93-43b4-8552-469727be187e"><path class="e5c1d001-5793-4d77-a91d-c61d48ea25c1" d="M3.55,577a303.85,303.85,0,0,1-62.4-165.52c-6.6-98.64,34.69-198.57,119-263.22,134-102.75,326-77.38,428.77,56.66s77.38,326-56.65,428.77a306.1,306.1,0,0,1-322,31.25,300.77,300.77,0,0,1-56.24-36A304.66,304.66,0,0,1,3.55,577Z" transform="translate(59.54 9.47)"></path></g></g></g><rect class="a44f2a1d-f148-4681-bf4d-49a77bc41e4c" x="247.53" y="89.49" width="63.23" height="254.04" rx="0.59" transform="translate(122.17 505.12) rotate(-90)"></rect><path class="a82196a3-f0d4-4c9e-82a0-8026ab4d88a5" d="M542,224.17A144.23,144.23,0,0,0,531.06,194a147,147,0,0,0-259-9.1H152.71a.6.6,0,0,0-.59.6v62a.59.59,0,0,0,.59.59h19.68a.59.59,0,0,0-.59.6v9.33H152.12v194a46.06,46.06,0,0,0,1.52,11.74l.36,1.29q.62,2.06,1.41,4c.3.75.63,1.49,1,2.21.24.51.49,1,.74,1.5,5.31,10.23,14.42,17.75,25.2,20.19a35.63,35.63,0,0,0,5.68.79c.65,0,1.29.06,1.95.06H368.33a34.48,34.48,0,0,0,9.46-1.32,33.77,33.77,0,0,0,3.55-1.22A37.52,37.52,0,0,0,393.77,483a41.13,41.13,0,0,0,5.93-7.57c.34-.56.67-1.12,1-1.7a44.85,44.85,0,0,0,5.48-21.67h0V405.56A147.12,147.12,0,0,0,542,224.17Z" transform="translate(59.54 9.47)"></path><rect class="f001e1c5-a547-416a-8752-3d25ee15691a" x="247.53" y="89.49" width="63.23" height="254.04" rx="0.59" transform="translate(555.19 -53.16) rotate(90)"></rect><rect class="b2ac10bf-8639-4f77-b880-4f3502c24fff" x="233.04" y="186.88" width="9.93" height="132.42" rx="0.17" transform="translate(550.63 24.55) rotate(90)"></rect><rect class="aa8c903d-6ce9-435e-b4fa-1e85b404eb41" x="227.07" y="202.78" width="21.88" height="132.42" rx="0.25" transform="translate(566.53 40.45) rotate(90)"></rect><path class="a53ad658-aabe-4c1c-8a93-75ff76b48c5b" d="M152.12,258.05v194c0,23.08,16.94,41.8,37.83,41.8H368.33c20.89,0,37.83-18.72,37.83-41.8v-194" transform="translate(59.54 9.47)"></path><path class="f8422547-0943-471d-9a82-37539ebcd25e" d="M152.12,258.05v194c0,23.08,16.94,41.8,37.83,41.8H368.33c20.89,0,37.83-18.72,37.83-41.8v-194" transform="translate(59.54 9.47)"></path><path class="e9720d8f-7f1a-413c-9635-02e32bc48e2c" d="M386.48,258.05v18.77a.59.59,0,0,1-.59.59h.59V426.76h0V443.5a27.18,27.18,0,0,1-27.18,27.18H199A27.18,27.18,0,0,1,171.8,443.5V277.41h.59a.59.59,0,0,1-.59-.59V258.05H152.12v194c0,23.08,16.94,41.8,37.83,41.8H368.33c20.89,0,37.83-18.72,37.83-41.8v-194Z" transform="translate(59.54 9.47)"></path><path class="f945c081-107c-4f6f-934a-1eac4907c13e" d="M199,376H359.3a27.18,27.18,0,0,1,27.18,27.18v67.54a0,0,0,0,1,0,0H171.8a0,0,0,0,1,0,0V403.14A27.18,27.18,0,0,1,199,376Z" transform="translate(617.82 856.11) rotate(180)"></path><path class="f2b53f7b-6a50-467a-9f64-ac819eab64c6" d="M583.39,258.76a179.38,179.38,0,1,1-358.75,0C224.64,159.69,305,79.37,404,79.37a179.53,179.53,0,0,1,161,100.34,176.44,176.44,0,0,1,13.33,36.84A179.12,179.12,0,0,1,583.39,258.76Z" transform="translate(59.54 9.47)"></path><path class="fc17f402-85c0-40c8-b55c-d30d734a72c2" d="M546.08,258.76a146.72,146.72,0,1,1-15-64.77A144.23,144.23,0,0,1,542,224.17,147.2,147.2,0,0,1,546.08,258.76Z" transform="translate(59.54 9.47)"></path><path class="a677b6cc-068e-468b-9cfa-92407df143ce" d="M399.12,128.77a130.15,130.15,0,0,1,116.7,72.74,127.43,127.43,0,0,1,9.64,26.67,130,130,0,1,1-126.34-99.41m0-17A146.81,146.81,0,1,0,542,224.17,144.23,144.23,0,0,0,531.06,194a147.1,147.1,0,0,0-131.94-82.22Z" transform="translate(59.54 9.47)"></path><g class="e3059a57-5726-4ab5-b13d-c80b0436ce13"><path class="bab1ce4b-2a8a-4682-a54d-928a18542c5b" d="M370.41,253.28c3.94-.08,7.45.56,10.2,2.74,5.07,4,9.91,8.32,14.67,12.69,4.29,3.93,8.47,7.94,13.73,10.59a26.32,26.32,0,0,0,17.12,2.47,2.34,2.34,0,0,0,1.53-1.44,6.63,6.63,0,0,1,4.35-4.94,27.22,27.22,0,0,1,19-.85c4,1.28,4.67,4.2,2,7.39a27.38,27.38,0,0,1-16.5,9.52,6.21,6.21,0,0,1-7-3.1,2.07,2.07,0,0,0-1.77-.74c-10.41,2.08-19.21-1.1-26.5-8.46-4.78-4.82-9-10.19-13.77-15a71.8,71.8,0,0,0-10.2-8.36C375.44,254.51,373,254.17,370.41,253.28Z" transform="translate(59.54 9.47)"></path><path class="bab1ce4b-2a8a-4682-a54d-928a18542c5b" d="M436.26,334.61c9.53,2,17.82-.39,25-6.35,5.85-4.88,11.2-10.36,16.87-15.45,4.1-3.68,8.76-6.24,14.49-6.27-8.1,1.37-13.17,7-18.34,12.66a203.85,203.85,0,0,1-15.65,16c-6.27,5.5-14,6.83-22.14,5.24a2,2,0,0,0-2.57,1.09,5.82,5.82,0,0,1-6.31,2.75A26.4,26.4,0,0,1,410.33,334c-1.88-2.42-1.05-5.17,2-6.2A26.28,26.28,0,0,1,432.75,329C435.06,330.05,435.84,332.17,436.26,334.61Z" transform="translate(59.54 9.47)"></path><path class="bab1ce4b-2a8a-4682-a54d-928a18542c5b" d="M421.91,164.45c-3.36,3.11-7,6-10,9.4-3.84,4.23-4.68,9.53-4.1,15.09.25,2.42.56,4.84.72,7.26.34,5.35-1.5,9.74-6,12.76-2,1.35-4.18,2.5-6.28,3.72-1.91,1.12-3.59,1.75-6,.44-1.45-.79-4.08-.45-5.74.32a29.24,29.24,0,0,0-14.65,15c-2,4.44-.1,7.2,4.81,7.3a30.52,30.52,0,0,0,18.62-6c2.49-1.76,4.18-4.09,3.93-7.43a2.48,2.48,0,0,1,1-1.71c1.46-1.12,3-2.13,4.57-3.12,7.34-4.66,9.7-11.42,8.4-19.74-.36-2.32-.73-4.64-1.14-7q-2.25-12.58,7.34-21c1.72-1.52,3.39-3.11,5.08-4.66Z" transform="translate(59.54 9.47)"></path><path class="bab1ce4b-2a8a-4682-a54d-928a18542c5b" d="M299.53,233.17a12.89,12.89,0,0,0-.62,2c-1,8.08-2,16.17-3.07,24.26s-1.49,16.16,2.22,23.78c1.16,2.36,2.76,4.51,4.17,6.78-3.49,3.58-3.87,6.15-1.37,10.73a28.29,28.29,0,0,0,11.33,11.64c4.23,2.31,6.92.79,7.22-4a27.29,27.29,0,0,0-4.69-17.55c-2.14-3.14-4.21-3.76-7.89-3a2.45,2.45,0,0,1-2-.75,26.47,26.47,0,0,1-6.55-17.19c0-6.61.65-13.22,1.08-19.83.31-4.71.73-9.42,1.05-14.13a17.57,17.57,0,0,0-.24-2.69Z" transform="translate(59.54 9.47)"></path><path class="bab1ce4b-2a8a-4682-a54d-928a18542c5b" d="M464.52,250c-2.82-6.93-1-13.6.91-20.3s4-13.46,5.42-20.31c1.3-6.27-.42-12.13-3.61-17.75-1.78-3.14-2.5-6.88-3.77-10.32a7.21,7.21,0,0,0-1.49-2.74,29.09,29.09,0,0,0-12.87-7.12c-3-.76-4.56.53-4.09,3.59a27.57,27.57,0,0,0,6.23,14,3.26,3.26,0,0,0,2.06,1.29c2.26-.1,3.55,1.48,5.19,2.51,1,.62,2.16,1,3.18,1.53a3.94,3.94,0,0,1,1.39,1.33c3.69,6.14,4.28,12.83,3.12,19.69-.85,5-2.1,10-3.21,15s-1.91,9.92-.75,15a40.35,40.35,0,0,0,1.73,4.79Z" transform="translate(59.54 9.47)"></path><path class="bab1ce4b-2a8a-4682-a54d-928a18542c5b" d="M311.15,210.71c7.91-2.24,13.23-6.78,14.29-15.47,1.1-9.06,3.71-11.61,12.82-13.46,1.82-.37,3.37-.67,4.95,1,.75.8,2.59,1.05,3.83.86a21.61,21.61,0,0,0,14-7.91c2.32-2.84,1.55-5.18-2-6.21a21.83,21.83,0,0,0-15.23.87,7.51,7.51,0,0,0-3.49,3.59,3.84,3.84,0,0,1-2.5,2.21c-2.81,1.14-5.77,2.12-8.25,3.78-3.73,2.48-4.55,6.68-5.1,10.83-.26,2-.4,3.95-.71,5.91a15.23,15.23,0,0,1-8.45,11.8C313.93,209.24,312.54,210,311.15,210.71Z" transform="translate(59.54 9.47)"></path><path class="bab1ce4b-2a8a-4682-a54d-928a18542c5b" d="M497,219.11c-.82,3.61.66,7.14,2,10.68,1.81,4.76,3.9,9.44,5.4,14.3,1.3,4.24.45,8.5-1.66,12.39-.35.65-1.39,1-2.16,1.33-1.13.55-2.57.74-3.4,1.56a16.64,16.64,0,0,0-5,11.22c-.17,3,1.38,4.13,4.17,3.11a17.7,17.7,0,0,0,9.38-7.67,4.27,4.27,0,0,0,.06-4.94,2.2,2.2,0,0,1,0-1.94c3.44-5.73,3.28-11.61.81-17.57-.75-1.83-1.65-3.61-2.56-5.37-1.48-2.84-3.27-5.54-4.49-8.49A78.47,78.47,0,0,1,497,219.11Z" transform="translate(59.54 9.47)"></path><path class="bab1ce4b-2a8a-4682-a54d-928a18542c5b" d="M373.71,283.9a14.55,14.55,0,0,0-2.63,9.53c.22,4.72.71,9.42,1.14,14.13.54,6,.6,11.91-2.94,17.23-.89,1.35-1.74,2.2-3.65,1.91a4.27,4.27,0,0,0-3.33,1.46A15.6,15.6,0,0,0,359,340.39c.39,2.55,1.8,3.23,4.1,2.1a16.76,16.76,0,0,0,8.06-8.73,4.29,4.29,0,0,0-1.53-5.63c6.39-7.45,4.76-16,3.42-24.47-.8-5.05-1.82-10.1-.68-15.22C372.72,286.9,373.26,285.41,373.71,283.9Z" transform="translate(59.54 9.47)"></path><path class="bab1ce4b-2a8a-4682-a54d-928a18542c5b" d="M389,334.39c1.27,6.51,1.07,12.74-3.68,18.21,2.43,2.48,1.51,4.93-.4,7a28.65,28.65,0,0,1-5.28,4.62c-1.88,1.25-3.45.25-3.57-2a13.71,13.71,0,0,1,3.31-9.72,3.11,3.11,0,0,1,2.58-1c2,.56,2.79-.62,3.64-1.9a19,19,0,0,0,2.8-10.21c.05-1.65.14-3.3.21-4.95Z" transform="translate(59.54 9.47)"></path><path class="bab1ce4b-2a8a-4682-a54d-928a18542c5b" d="M345,231.72c-5.5,3.7-9.76,8.25-10.27,15.47-3.47,0-4.56,2.42-4.7,5.27a28.78,28.78,0,0,0,.46,7c.44,2.21,2.27,2.62,4,1.08a13.68,13.68,0,0,0,4.54-9.21,3.15,3.15,0,0,0-1.12-2.53c-1.81-1-1.54-2.42-1.23-3.92a19,19,0,0,1,5.24-9.2c1.13-1.2,2.23-2.43,3.35-3.65A1.83,1.83,0,0,0,345,231.72Z" transform="translate(59.54 9.47)"></path></g><path class="b91d5eaa-c953-4020-9cf0-52691598dc9d" d="M525.44,257.82a125.71,125.71,0,1,1-3.52-29.72A125.63,125.63,0,0,1,525.44,257.82Z" transform="translate(59.54 9.47)"></path></g></g></g></svg>