<svg xmlns="http://www.w3.org/2000/svg" xmlns:xlink="http://www.w3.org/1999/xlink" viewBox="0 0 610.9 697.91"><defs><style>.fb521d91-cf30-4769-a482-eb0530addcf1{isolation:isolate;}.ac69048d-b558-4ef1-bb29-f8a9c495708f,.afde20d6-1e98-473f-8497-a6847db78d56,.bb0f07c5-6568-4945-b87c-7bb3c71a8146,.edfea74f-9d96-478e-9d56-e35cd481f716{mix-blend-mode:multiply;}.bb0f07c5-6568-4945-b87c-7bb3c71a8146{fill:url(#e4381851-1e48-43eb-9e6d-53302ea21cc8);}.a5bd9555-7b6a-4111-bf37-2107c05baf10{fill:url(#b847fe94-593e-40aa-9905-35bded034ca8);}.a4dece82-0440-45a4-b3e6-78d9f2b282ed{fill:url(#b6691cd7-3181-4aba-8e7a-947a48b88fb1);}.a6858f75-c966-4187-8b67-8f97269202b8{fill:#dcb7c0;opacity:0.34;}.ec4976d1-f6b3-4064-be2f-1a4d2526a758{fill:url(#b3e920c3-cf00-428c-af1f-a2f2c934ca99);}.afde20d6-1e98-473f-8497-a6847db78d56,.b321489d-d4f3-4679-aa8b-bfbf2d789e34{opacity:0.51;}.afde20d6-1e98-473f-8497-a6847db78d56{fill:url(#fd91525b-6872-4c9e-8b80-f2556e6b7495);}.a6bb18e7-c75f-4a39-8f9a-6db89e3b9c8d{opacity:0.57;}.a2e96d7d-8b4e-420e-9ea8-48c33afc60a0{fill:#e9cdba;}.ab42e93c-db02-4dc0-9f71-ccb6e633d65c,.b6fb1046-eb46-4b3a-8365-b4314bc69c9c{fill:#754092;}.a0f9a298-0e65-49e1-8fed-e8e3dc3b5ce4,.b6fb1046-eb46-4b3a-8365-b4314bc69c9c,.bf755877-c4e3-4a13-8fbe-d678e903c69f{opacity:0.75;}.eda46afa-8fda-4822-a002-119958f950fe{opacity:0.58;}.bf755877-c4e3-4a13-8fbe-d678e903c69f{fill:#d1d6d8;stroke:#b8b8bb;stroke-width:2px;}.ac69048d-b558-4ef1-bb29-f8a9c495708f,.bf755877-c4e3-4a13-8fbe-d678e903c69f{stroke-miterlimit:10;}.b321489d-d4f3-4679-aa8b-bfbf2d789e34{fill:#dde8ee;}.ae3b80d8-8201-490d-bb74-1459ed9bd8f1{fill:#fefefe;opacity:0.83;}.b8916713-e44f-4ef8-b26f-f7d21701106a{fill:#b8b8bb;opacity:0.36;}.b06aaf13-e353-4694-912d-882d55364b45{fill:#ffa1c3;}.a9ccac3b-ebc4-42ee-8f24-a3b97b541d36,.b06aaf13-e353-4694-912d-882d55364b45{opacity:0.5;}.a0f9a298-0e65-49e1-8fed-e8e3dc3b5ce4,.f641d937-f92a-45d3-9ad0-1b319ae0b31d{fill:#733f91;}.ac69048d-b558-4ef1-bb29-f8a9c495708f{fill:none;stroke:#b3aca9;stroke-linecap:round;stroke-width:3.2px;stroke-dasharray:6 10;}.edfea74f-9d96-478e-9d56-e35cd481f716{fill:#b3aca9;}.a9ccac3b-ebc4-42ee-8f24-a3b97b541d36{fill:#e194b3;}</style><radialGradient id="e4381851-1e48-43eb-9e6d-53302ea21cc8" cx="305.45" cy="317.23" r="305.45" gradientUnits="userSpaceOnUse"><stop offset="0.47" stop-color="#c4a08f"></stop><stop offset="0.57" stop-color="#c5a191" stop-opacity="0.98"></stop><stop offset="0.65" stop-color="#c8a696" stop-opacity="0.94"></stop><stop offset="0.72" stop-color="#cdae9f" stop-opacity="0.85"></stop><stop offset="0.78" stop-color="#d3b9ac" stop-opacity="0.74"></stop><stop offset="0.84" stop-color="#dcc7bd" stop-opacity="0.59"></stop><stop offset="0.9" stop-color="#e7d9d2" stop-opacity="0.4"></stop><stop offset="0.96" stop-color="#f4edea" stop-opacity="0.19"></stop><stop offset="1" stop-color="#fff" stop-opacity="0"></stop></radialGradient><radialGradient id="b847fe94-593e-40aa-9905-35bded034ca8" cx="310.89" cy="325.98" r="292.12" gradientTransform="translate(0 25.53) scale(1 0.92)" gradientUnits="userSpaceOnUse"><stop offset="0.84" stop-color="#e6dbce"></stop><stop offset="0.85" stop-color="#e7dcd0" stop-opacity="0.96"></stop><stop offset="0.88" stop-color="#eae0d5" stop-opacity="0.86"></stop><stop offset="0.91" stop-color="#eee6dd" stop-opacity="0.69"></stop><stop offset="0.94" stop-color="#f4efe9" stop-opacity="0.45"></stop><stop offset="0.98" stop-color="#fbfaf8" stop-opacity="0.15"></stop><stop offset="1" stop-color="#fff" stop-opacity="0"></stop></radialGradient><linearGradient id="b6691cd7-3181-4aba-8e7a-947a48b88fb1" x1="310.92" y1="606" x2="310.96" y2="606" gradientUnits="userSpaceOnUse"><stop offset="0.42" stop-color="#dccdd8"></stop><stop offset="0.43" stop-color="#dfd2dc"></stop><stop offset="0.52" stop-color="#f1ebef"></stop><stop offset="0.61" stop-color="#fbfafb"></stop><stop offset="0.67" stop-color="#fff"></stop></linearGradient><linearGradient id="b3e920c3-cf00-428c-af1f-a2f2c934ca99" x1="309.14" y1="199.66" x2="309.14" y2="424.11" gradientUnits="userSpaceOnUse"><stop offset="0" stop-color="#fff"></stop><stop offset="0.09" stop-color="#fff" stop-opacity="0.97"></stop><stop offset="0.22" stop-color="#fff" stop-opacity="0.89"></stop><stop offset="0.38" stop-color="#fff" stop-opacity="0.75"></stop><stop offset="0.56" stop-color="#fff" stop-opacity="0.56"></stop><stop offset="0.76" stop-color="#fff" stop-opacity="0.32"></stop><stop offset="0.98" stop-color="#fff" stop-opacity="0.04"></stop><stop offset="1" stop-color="#fff" stop-opacity="0"></stop></linearGradient><linearGradient id="fd91525b-6872-4c9e-8b80-f2556e6b7495" x1="309.69" y1="397.97" x2="309.69" y2="221.21" gradientUnits="userSpaceOnUse"><stop offset="0" stop-color="#fff" stop-opacity="0"></stop><stop offset="0.12" stop-color="#faf3ee" stop-opacity="0.19"></stop><stop offset="0.26" stop-color="#f5e7de" stop-opacity="0.37"></stop><stop offset="0.4" stop-color="#f0ded1" stop-opacity="0.51"></stop><stop offset="0.54" stop-color="#edd6c7" stop-opacity="0.63"></stop><stop offset="0.69" stop-color="#ebd1c0" stop-opacity="0.71"></stop><stop offset="0.84" stop-color="#e9cebb" stop-opacity="0.75"></stop><stop offset="1" stop-color="#e9cdba" stop-opacity="0.77"></stop></linearGradient></defs><g class="fb521d91-cf30-4769-a482-eb0530addcf1"><g id="b83b25c7-9e84-4d34-a2f5-b5eef28e61ab" data-name="Capa 2"><g id="bf502dfe-c0fe-4522-80e8-a26bf88ed08c" data-name="Capa 5"><circle class="bb0f07c5-6568-4945-b87c-7bb3c71a8146" cx="305.45" cy="317.23" r="305.45"></circle><path class="a5bd9555-7b6a-4111-bf37-2107c05baf10" d="M527.34,334.85c-7-56.77-32.39-122.92-74-171.43-5.3-6.18-8.86-13.12-13.25-20.15a27.19,27.19,0,0,1-2.92-8.61l11-41.44c3.52-12.38,6.53-23,6.53-23l-2.7.24c0-.08,0-.16.05-.24h3.69V0H170.18V69.26a1.44,1.44,0,0,0,0,1s6.09,21.48,11.07,38.94c.08.65.16,1.29.23,1.94a2,2,0,0,0,.05.24l5.89,19.24c2,6.45-4.93,16.59-4.93,16.59h0c-31,34.39-60.89,84.06-75.75,124-13,34.92-20,74.44-16.56,110.7,4.89,52.16,18.48,103.38,36.35,154,3.21,9.15,6.34,18.32,9.11,27.54.59,1.93,6.2,18.54,8.17,24.5,4.44,13.48,14.32,50.65,24.42,88.57C179,717,303.59,691,303.61,672.81c0-37.1.08-69.78.13-83,.09-21.18-.49-42.36-.2-63.54.61-44.47,1.08,8.3.52-38.37-.15-12.5-.15-26.11-3.58-38.21-2.75-9.74-12.63-16.45-21.15-21a98.21,98.21,0,0,1-20.19-14.83,1.41,1.41,0,0,1,1.77-2.19c13,8.63,27,15.89,49.07,15.65,28.47-.32,43.13-13,58.47-25.63a1.41,1.41,0,0,1,1.69-.1l.76.49a1.4,1.4,0,0,1,.08,2.29c-12.86,9.82-24.82,20.27-39.13,29.09-7,4.33-12.63,9.69-14.33,17.94-2.83,13.74-4.37,28.4-3.2,42.41.74,8.79,1.49,95.08,2.08,180.79.17,24.59,138.54,34.16,141.88,2.59,1.69-16,3.35-28.73,4.07-30.08a1.42,1.42,0,0,0,.14-.36c3.86-15.88,7-31.87,11.75-47.62,15-49.86,31.49-99.5,45.9-149.44C531.07,411.79,532,373.22,527.34,334.85Zm-208-165.2a2.24,2.24,0,0,1-.74.37c-4.78,2.11-9.48,3.43-17.51,1.44-1.2-.3-1.74-1.71-.66-2.38,2.87-1.78,5.12-3.19,7.59-3.4,3.85-.32,8.14,1.88,12.24,3C320,169,319.69,169.31,319.39,169.65Z"></path><path class="a4dece82-0440-45a4-b3e6-78d9f2b282ed" d="M310.93,606s0,0,0,0S311,606,310.93,606Z"></path><path class="a6858f75-c966-4187-8b67-8f97269202b8" d="M195.25,257.72s51.64,1,48.7-6.37l2.94,7.36-33,5.05Z"></path><path class="a6858f75-c966-4187-8b67-8f97269202b8" d="M422.09,257.72s-51.64,1-48.7-6.37l-2.94,7.36,33,5.05Z"></path><path class="a6858f75-c966-4187-8b67-8f97269202b8" d="M195.25,257.72s51.64,1,48.7-6.37l2.94,7.36-33,5.05Z"></path><path class="ec4976d1-f6b3-4064-be2f-1a4d2526a758" d="M424.4,217.19c-41.8,0-59.49-5.86-71.51-12-37-10.31-72.08-3.82-88.51.51-12,5.95-29.85,11.5-70.51,11.5-48.77,0-72.17,51.73-18.53,71.75s55-50.1,5.85-26.69c-27.71,13.19-28.28-33.38,18.53-33.38s44.87,25,44.87,30.87,2.66,34.15,26.34,68.42c12.68,18.35,2.92,37.54,10.73,60.07s11.7,35.88,11.7,35.88H309l.17-1.38.17,1.38h15.6s3.91-13.35,11.71-35.88-1.95-41.72,10.73-60.07c23.67-34.27,26.33-62.58,26.33-68.42s-1.95-30.87,44.87-30.87,46.25,46.57,18.53,33.38c-49.18-23.41-47.79,46.72,5.85,26.69S473.17,217.19,424.4,217.19Z"></path><path class="afde20d6-1e98-473f-8497-a6847db78d56" d="M455.51,238.11c-.44-.59-.91-1.17-1.4-1.73a19.67,19.67,0,0,0-3.59-3.49c-8.19-6.76-21-10.61-38.32-11.45a168.06,168.06,0,0,0-25.07.59,151.13,151.13,0,0,0-30.21,5.47c-.31.11-22.34,7.83-46.33,7.83h-1.44c-24,0-46-7.72-46.34-7.83a151,151,0,0,0-30.2-5.47,168.06,168.06,0,0,0-25.07-.59c-17.3.84-30.13,4.69-38.32,11.45a19.67,19.67,0,0,0-3.59,3.49c-.49.56-1,1.14-1.4,1.73-8.57,11.58-.28,23,.43,23.4h0c.05.29-7.38-8.22,3-20.92a30.08,30.08,0,0,1,4.64-4.75c4.64-3.47,14.69-8.75,34-10.08,5-.31,10.35-.34,16.1-.13,3.36.14,6.64.34,9.83.62,2.86.26,5.86.6,9,1,18.41,2.42,30.64,17.16,39.8,32.11,5.17,8.44,2.91,19.81,3.85,29.62A141.15,141.15,0,0,0,292,323c4.09,11.48,12.48,23.67,13.94,35.78l1.62,39.2h4.58l3-39.2c1.45-12.11,8.43-24.3,12.51-35.78a141.17,141.17,0,0,0,7.17-34c.94-9.81-1.32-21.18,3.85-29.62,9.16-15,21.39-29.69,39.8-32.11,3.12-.4,6.12-.74,9-1,3.19-.28,6.47-.48,9.83-.62,5.75-.21,11.13-.18,16.1.13,19.29,1.33,29.34,6.61,34,10.08a17.74,17.74,0,0,1,4.65,4.75c7.89,13.61,2.05,20.24,2,20.35h0C454.26,260.39,464.08,249.69,455.51,238.11Z"></path><g class="a6bb18e7-c75f-4a39-8f9a-6db89e3b9c8d"><path class="a2e96d7d-8b4e-420e-9ea8-48c33afc60a0" d="M387.14,222.18a170.78,170.78,0,0,0-19.37,3.06c-3.19.72-6.36,1.53-9.47,2.48s-6.24,2.09-9.39,3a169.35,169.35,0,0,1-19.31,4.18,138.74,138.74,0,0,1-39.53.51c-3.29-.42-6.54-1-9.79-1.63s-6.45-1.47-9.64-2.34q-2.38-.68-4.75-1.43l-2.36-.79c-.81-.29-1.54-.53-2.3-.77-3.07-1-6.23-1.79-9.38-2.58s-6.35-1.44-9.57-2-6.44-1.12-9.68-1.63l0-.3c3.29.06,6.57.3,9.85.58s6.55.78,9.8,1.32,6.48,1.26,9.71,2.1c.83.2,1.65.45,2.4.69l2.33.69c1.56.44,3.13.85,4.7,1.25,3.15.81,6.32,1.53,9.5,2.18s6.37,1.28,9.58,1.74a130.7,130.7,0,0,0,38.83.5,167.6,167.6,0,0,0,19.2-3.7c3.18-.78,6.26-1.72,9.44-2.66s6.39-1.59,9.63-2.21a169.24,169.24,0,0,1,19.53-2.48Z"></path></g><g class="a6bb18e7-c75f-4a39-8f9a-6db89e3b9c8d"><path class="a2e96d7d-8b4e-420e-9ea8-48c33afc60a0" d="M311.4,398l2.18-26.7c.39-4.45.69-8.89,1.14-13.36a64.39,64.39,0,0,1,3.33-13.1c3-8.46,7.05-16.48,9.69-24.92a138.34,138.34,0,0,0,5.4-26c.23-2.19.48-4.43.6-6.59s.09-4.39.07-6.61a75.48,75.48,0,0,1,.59-13.62,26,26,0,0,1,2.08-6.78l.86-1.59c.29-.5.59-1,.89-1.45.59-1,1.18-1.92,1.82-2.85a102,102,0,0,1,8.2-10.83,63.53,63.53,0,0,1,10.07-9.24,43.7,43.7,0,0,1,12.2-6.23,31.87,31.87,0,0,1,3.32-.89,29.34,29.34,0,0,1,3.37-.6c1.13-.2,2.24-.27,3.36-.36l3.35-.28,3.35-.25,3.36-.1c2.23-.06,4.47-.11,6.7-.14l0,.3c-2.23.25-4.44.49-6.66.71l-3.32.34-3.31.5-3.3.46c-1.1.15-2.22.28-3.28.53a27.16,27.16,0,0,0-3.18.75,28,28,0,0,0-3.1,1c-8.17,3.06-15.05,8.8-20.69,15.46a99.5,99.5,0,0,0-7.86,10.57c-.61.92-1.21,1.85-1.8,2.78-.29.47-.61.94-.88,1.4l-.75,1.34a23.13,23.13,0,0,0-1.9,6,74,74,0,0,0-.83,13.09c0,2.23-.05,4.49-.22,6.77s-.46,4.49-.75,6.73a140.25,140.25,0,0,1-5.92,26.29c-2.85,8.58-7,16.53-10.14,24.83A63.41,63.41,0,0,0,315.91,358c-.55,4.41-1,8.87-1.43,13.3L311.7,398Z"></path></g><g class="a6bb18e7-c75f-4a39-8f9a-6db89e3b9c8d"><path class="a2e96d7d-8b4e-420e-9ea8-48c33afc60a0" d="M308,398l-1.76-25.53-.87-12.77-.06-.79c0-.26-.08-.52-.12-.78l-.26-1.53c-.25-1-.44-2.05-.76-3.06a57.71,57.71,0,0,0-2.07-6c-3.15-7.86-7.55-15.21-10.68-23.29a130.64,130.64,0,0,1-6.53-24.94c-.36-2.12-.66-4.25-.93-6.38s-.53-4.27-.66-6.46c-.25-4.35-.09-8.62-.3-12.81s-.77-8.28-2.48-11.84a58.42,58.42,0,0,0-3.17-5.31c-1.15-1.78-2.34-3.51-3.57-5.22-4.88-6.82-10.6-13.13-17.64-17.65a39.87,39.87,0,0,0-11.42-5c-1-.28-2-.46-3.08-.69s-2.09-.34-3.14-.52q-3.16-.46-6.33-1l0-.3c2.13.13,4.27.27,6.4.43,1.07.1,2.13.12,3.21.27s2.15.26,3.21.47a40.94,40.94,0,0,1,12.2,4.58c7.64,4.32,13.79,10.78,19,17.67q1.92,2.61,3.71,5.31c.6.9,1.17,1.81,1.75,2.72s1.15,1.91,1.68,2.93c2,4.19,2.45,8.74,2.62,13.07s-.12,8.61,0,12.79c.07,2.07.27,4.18.49,6.29s.48,4.21.78,6.31a128.46,128.46,0,0,0,6,24.63c2.9,7.9,7.19,15.37,10.26,23.42a57.49,57.49,0,0,1,2,6.17c.3,1,.48,2.11.71,3.17l.24,1.63.11.81,0,.8.58,12.8L308.34,398Z"></path></g><ellipse class="b6fb1046-eb46-4b3a-8365-b4314bc69c9c" cx="428.17" cy="276.04" rx="6.01" ry="5.57" transform="translate(4.09 558.32) rotate(-66.46)"></ellipse><g class="eda46afa-8fda-4822-a002-119958f950fe"><path class="ab42e93c-db02-4dc0-9f71-ccb6e633d65c" d="M430.57,270.53a6,6,0,1,0,2.7,7.73A5.81,5.81,0,0,0,430.57,270.53Zm2.12,7.48a4.94,4.94,0,1,1-2.4-6.85A5.14,5.14,0,0,1,432.69,278Z"></path></g><g class="eda46afa-8fda-4822-a002-119958f950fe"><path class="ab42e93c-db02-4dc0-9f71-ccb6e633d65c" d="M426.43,271.44A.6.6,0,0,0,427,271a4.7,4.7,0,0,0-.87.36A.55.55,0,0,0,426.43,271.44Z"></path><path class="ab42e93c-db02-4dc0-9f71-ccb6e633d65c" d="M426,271.41a4.94,4.94,0,0,0-.75.51l.15,0A.6.6,0,0,0,426,271.41Z"></path><path class="ab42e93c-db02-4dc0-9f71-ccb6e633d65c" d="M429.93,280a.6.6,0,0,0-.6.6v0a.61.61,0,0,0-.52-.29.59.59,0,0,0-.58.46.59.59,0,0,0-.74-.12,1.37,1.37,0,0,0-1.34-1.09,1.32,1.32,0,0,0-.78.25.41.41,0,0,0,0-.11.6.6,0,0,0-.6-.6.54.54,0,0,0-.22.05.9.9,0,0,0,.22-.6.88.88,0,0,0-.57-.83.92.92,0,0,0,.33-.7.9.9,0,0,0-.9-.9.86.86,0,0,0-.47.14,5.2,5.2,0,0,0,1,3.13l.1,0-.06.1a4.72,4.72,0,0,0,1.8,1.4,4.78,4.78,0,0,0,3.37.14v-.12l.07.09a5.19,5.19,0,0,0,1-.49A.61.61,0,0,0,429.93,280Z"></path><path class="ab42e93c-db02-4dc0-9f71-ccb6e633d65c" d="M423.88,275.59a.61.61,0,0,0-.51-.59.59.59,0,0,0,.51-.59.85.85,0,0,0,0-.23.59.59,0,0,0,.34-.54.73.73,0,0,0-.07-.29.92.92,0,0,0,.43.11.9.9,0,0,0,.68-1.49,5.66,5.66,0,0,0-1.57,2.1,5.51,5.51,0,0,0-.47,2.11h.1A.6.6,0,0,0,423.88,275.59Z"></path><path class="ab42e93c-db02-4dc0-9f71-ccb6e633d65c" d="M433.15,275.39h0a5.13,5.13,0,0,0-1-2.7l-.09,0a.88.88,0,0,0,0-.17,5.11,5.11,0,0,0-.73-.74l-.2,0H431a.58.58,0,0,0,0-.19,4.88,4.88,0,0,0-.78-.43,4.67,4.67,0,0,0-3.12-.21.52.52,0,0,0,.06.13,1,1,0,0,0,.31,1.86,1.09,1.09,0,0,0,.26,0,1.16,1.16,0,0,0-.31.78,1.14,1.14,0,0,0,1.72,1,.64.64,0,0,0,.6.4.66.66,0,0,0,.65-.55,1,1,0,0,0,.69.29.94.94,0,0,0,.94-.84.85.85,0,0,0,.23,0h.08a.69.69,0,0,0,.15.42.6.6,0,0,0,0,1.15.86.86,0,0,0-.33.68,1.06,1.06,0,0,0,.05.31,1.22,1.22,0,0,0-.41.91,1.2,1.2,0,0,0,.15.59.39.39,0,0,0-.15,0,.66.66,0,0,0-.42,1.17h-.13a.86.86,0,0,0-.86.86.87.87,0,0,0,.13.45,5.63,5.63,0,0,0,1.28-1.12.1.1,0,0,1,0,0h.08a5.79,5.79,0,0,0,.82-1.34A5.65,5.65,0,0,0,433.15,275.39Zm-3.8-3.88h-.19a.13.13,0,0,0,0-.06h0l.15,0A.28.28,0,0,0,429.35,271.51Zm.84,1.37s0,0,0,0v0Zm0-.26a.49.49,0,0,0-.08-.21h.13A.8.8,0,0,0,430.2,272.62Z"></path></g><path class="bf755877-c4e3-4a13-8fbe-d678e903c69f" d="M416.71,397V539.9a12.46,12.46,0,0,0,12.46,12.47h21.2a12.46,12.46,0,0,0,12.46-12.47V397"></path><path class="b321489d-d4f3-4679-aa8b-bfbf2d789e34" d="M432.29,405.47h15a8.8,8.8,0,0,1,8.8,8.8V543.82a0,0,0,0,1,0,0H423.49a0,0,0,0,1,0,0V414.27A8.8,8.8,0,0,1,432.29,405.47Z" transform="translate(879.54 949.29) rotate(180)"></path><path class="ae3b80d8-8201-490d-bb74-1459ed9bd8f1" d="M432.29,462.93h15a8.8,8.8,0,0,1,8.8,8.8v72.1a0,0,0,0,1,0,0H423.49a0,0,0,0,1,0,0v-72.1A8.8,8.8,0,0,1,432.29,462.93Z" transform="translate(879.54 1006.75) rotate(180)"></path><rect class="b8916713-e44f-4ef8-b26f-f7d21701106a" x="436.38" y="364.59" width="6.78" height="58.01" rx="0.66" transform="translate(833.37 -46.17) rotate(90)"></rect><rect class="b06aaf13-e353-4694-912d-882d55364b45" x="435.09" y="385.39" width="9.36" height="32.56" transform="translate(841.44 -38.1) rotate(90)"></rect><rect class="b8916713-e44f-4ef8-b26f-f7d21701106a" x="423.49" y="380.85" width="9.36" height="9.36" transform="translate(813.7 -42.64) rotate(90)"></rect><ellipse class="b6fb1046-eb46-4b3a-8365-b4314bc69c9c" cx="432.85" cy="527.6" rx="4.65" ry="4.3" transform="translate(-223.72 713.69) rotate(-66.46)"></ellipse><g class="eda46afa-8fda-4822-a002-119958f950fe"><path class="ab42e93c-db02-4dc0-9f71-ccb6e633d65c" d="M434.7,523.34a4.66,4.66,0,1,0,2.09,6A4.49,4.49,0,0,0,434.7,523.34Zm1.64,5.78a3.82,3.82,0,1,1-1.85-5.29A4,4,0,0,1,436.34,529.12Z"></path></g><g class="eda46afa-8fda-4822-a002-119958f950fe"><path class="ab42e93c-db02-4dc0-9f71-ccb6e633d65c" d="M431.5,524a.45.45,0,0,0,.45-.34,4,4,0,0,0-.67.28A.4.4,0,0,0,431.5,524Z"></path><path class="ab42e93c-db02-4dc0-9f71-ccb6e633d65c" d="M431.2,524a5.87,5.87,0,0,0-.58.39l.12,0A.46.46,0,0,0,431.2,524Z"></path><path class="ab42e93c-db02-4dc0-9f71-ccb6e633d65c" d="M434.21,530.69a.47.47,0,0,0-.47.46v0a.46.46,0,0,0-.4-.23.45.45,0,0,0-.45.36.46.46,0,0,0-.35-.16.41.41,0,0,0-.22.07,1.07,1.07,0,0,0-1.65-.65.28.28,0,0,0,0-.09.47.47,0,0,0-.46-.46.33.33,0,0,0-.17,0,.76.76,0,0,0,.17-.46.7.7,0,0,1-.18-1.19.7.7,0,0,0-.7-.69.72.72,0,0,0-.36.1,4.06,4.06,0,0,0,.79,2.43l.08,0a.35.35,0,0,0-.05.08,3.59,3.59,0,0,0,4,1.19.17.17,0,0,0,0-.07v0l.05.07a4.52,4.52,0,0,0,.8-.38A.45.45,0,0,0,434.21,530.69Z"></path><path class="ab42e93c-db02-4dc0-9f71-ccb6e633d65c" d="M429.53,527.25a.45.45,0,0,0-.39-.45.47.47,0,0,0,.39-.46.57.57,0,0,0,0-.18.45.45,0,0,0,.27-.42.43.43,0,0,0-.06-.22.64.64,0,0,0,.34.09.69.69,0,0,0,.69-.7.66.66,0,0,0-.17-.45,4.26,4.26,0,0,0-1.22,1.62,4.32,4.32,0,0,0-.36,1.63h.08A.46.46,0,0,0,429.53,527.25Z"></path><path class="ab42e93c-db02-4dc0-9f71-ccb6e633d65c" d="M436.7,527.1h0A4,4,0,0,0,436,525l-.07,0s0-.09,0-.14a3.84,3.84,0,0,0-.57-.57l-.15,0h-.08a.77.77,0,0,0,0-.15,2.89,2.89,0,0,0-.6-.33,3.61,3.61,0,0,0-2.42-.16.53.53,0,0,0,.06.1.73.73,0,0,0,.23,1.43.64.64,0,0,0,.2,0,.87.87,0,0,0-.24.6.89.89,0,0,0,.88.89.85.85,0,0,0,.45-.13.52.52,0,0,0,.47.31.51.51,0,0,0,.5-.42.77.77,0,0,0,.53.22.73.73,0,0,0,.73-.65.47.47,0,0,0,.17,0h.07a.5.5,0,0,0,.11.32.48.48,0,0,0-.34.45.47.47,0,0,0,.33.45.65.65,0,0,0-.26.52.6.6,0,0,0,.05.24.94.94,0,0,0-.33.71,1,1,0,0,0,.12.45l-.12,0a.5.5,0,0,0-.5.51.54.54,0,0,0,.18.4h-.1a.66.66,0,0,0-.66.66.6.6,0,0,0,.1.35,4.42,4.42,0,0,0,1-.86l0,0h.07a4.5,4.5,0,0,0,.63-1A4.38,4.38,0,0,0,436.7,527.1Zm-2.94-3h-.14V524h.15A.17.17,0,0,0,433.76,524.1Zm.65,1v0Zm0-.19a.36.36,0,0,0-.07-.17h.1A.76.76,0,0,0,434.42,525Z"></path></g><ellipse class="a0f9a298-0e65-49e1-8fed-e8e3dc3b5ce4" cx="444.13" cy="511.89" rx="4.65" ry="4.3" transform="translate(-202.54 714.6) rotate(-66.46)"></ellipse><g class="eda46afa-8fda-4822-a002-119958f950fe"><path class="f641d937-f92a-45d3-9ad0-1b319ae0b31d" d="M446,507.63a4.66,4.66,0,1,0,2.09,6A4.47,4.47,0,0,0,446,507.63Zm1.64,5.78a3.82,3.82,0,1,1-1.85-5.29A4,4,0,0,1,447.63,513.41Z"></path></g><g class="eda46afa-8fda-4822-a002-119958f950fe"><path class="f641d937-f92a-45d3-9ad0-1b319ae0b31d" d="M442.79,508.33a.47.47,0,0,0,.45-.34,4,4,0,0,0-.68.28A.46.46,0,0,0,442.79,508.33Z"></path><path class="f641d937-f92a-45d3-9ad0-1b319ae0b31d" d="M442.49,508.31a3.76,3.76,0,0,0-.59.39l.13,0A.47.47,0,0,0,442.49,508.31Z"></path><path class="f641d937-f92a-45d3-9ad0-1b319ae0b31d" d="M445.49,515a.47.47,0,0,0-.46.46v0a.46.46,0,0,0-.85.12.45.45,0,0,0-.34-.15.46.46,0,0,0-.23.06,1.06,1.06,0,0,0-1-.84,1,1,0,0,0-.6.19s0-.05,0-.08a.47.47,0,0,0-.64-.43.67.67,0,0,0,.17-.46.69.69,0,0,0-.43-.64.71.71,0,0,0,.25-.54.69.69,0,0,0-.69-.69.66.66,0,0,0-.37.1,4,4,0,0,0,.8,2.42l.07,0a.25.25,0,0,0,0,.07,3.55,3.55,0,0,0,4,1.19v-.09l.05.08a4.31,4.31,0,0,0,.81-.39A.47.47,0,0,0,445.49,515Z"></path><path class="f641d937-f92a-45d3-9ad0-1b319ae0b31d" d="M440.82,511.54a.45.45,0,0,0-.39-.45.47.47,0,0,0,.39-.46.39.39,0,0,0,0-.18.45.45,0,0,0,.27-.42.43.43,0,0,0-.06-.22.67.67,0,0,0,.34.09.7.7,0,0,0,.7-.7.72.72,0,0,0-.18-.46,4.4,4.4,0,0,0-1.21,1.62,4.59,4.59,0,0,0-.37,1.64h.09A.47.47,0,0,0,440.82,511.54Z"></path><path class="f641d937-f92a-45d3-9ad0-1b319ae0b31d" d="M448,511.39h0a4,4,0,0,0-.75-2.09l-.07,0s0-.09,0-.13a3.84,3.84,0,0,0-.57-.57l-.16,0h-.08a.58.58,0,0,0,0-.14,3.51,3.51,0,0,0-.6-.33,3.62,3.62,0,0,0-2.42-.17.54.54,0,0,0,.05.11.72.72,0,0,0-.5.69.74.74,0,0,0,.74.74.69.69,0,0,0,.2,0,.88.88,0,0,0,.64,1.48.89.89,0,0,0,.45-.12.51.51,0,0,0,1-.12.72.72,0,0,0,.52.23.75.75,0,0,0,.74-.65.47.47,0,0,0,.17,0h.06a.53.53,0,0,0,.12.32.46.46,0,0,0-.35.45.45.45,0,0,0,.34.44.68.68,0,0,0-.26.53.67.67,0,0,0,0,.24.92.92,0,0,0-.32.71.93.93,0,0,0,.11.44H447a.51.51,0,0,0-.51.51.48.48,0,0,0,.19.39h-.1a.66.66,0,0,0-.67.66.68.68,0,0,0,.1.35,4.26,4.26,0,0,0,1-.86l0,0H447a4.76,4.76,0,0,0,.64-1A4.4,4.4,0,0,0,448,511.39Zm-2.94-3-.11,0h0v-.05h.15Zm.65,1.05v0Zm0-.2a.44.44,0,0,0-.06-.16h.1A.94.94,0,0,0,445.7,509.24Z"></path></g><ellipse class="b6fb1046-eb46-4b3a-8365-b4314bc69c9c" cx="445.95" cy="524.79" rx="4.65" ry="4.3" transform="translate(-213.28 724.02) rotate(-66.46)"></ellipse><g class="eda46afa-8fda-4822-a002-119958f950fe"><path class="ab42e93c-db02-4dc0-9f71-ccb6e633d65c" d="M447.8,520.53a4.66,4.66,0,1,0,2.09,6A4.49,4.49,0,0,0,447.8,520.53Zm1.64,5.79a3.82,3.82,0,1,1-1.85-5.3A4,4,0,0,1,449.44,526.32Z"></path></g><g class="eda46afa-8fda-4822-a002-119958f950fe"><path class="ab42e93c-db02-4dc0-9f71-ccb6e633d65c" d="M444.6,521.24a.46.46,0,0,0,.45-.34,3.27,3.27,0,0,0-.67.28A.51.51,0,0,0,444.6,521.24Z"></path><path class="ab42e93c-db02-4dc0-9f71-ccb6e633d65c" d="M444.3,521.22a3.68,3.68,0,0,0-.58.39h.12A.46.46,0,0,0,444.3,521.22Z"></path><path class="ab42e93c-db02-4dc0-9f71-ccb6e633d65c" d="M447.31,527.89a.46.46,0,0,0-.47.46v0a.48.48,0,0,0-.4-.23.46.46,0,0,0-.45.36.49.49,0,0,0-.35-.15.4.4,0,0,0-.22.06,1.07,1.07,0,0,0-1.65-.65.22.22,0,0,0,0-.08.45.45,0,0,0-.46-.46.47.47,0,0,0-.17,0,.72.72,0,0,0,.17-.46.71.71,0,0,0-.44-.65.67.67,0,0,0,.26-.53.7.7,0,0,0-.7-.7.72.72,0,0,0-.36.1,4,4,0,0,0,.79,2.43l.08,0,0,.07a3.5,3.5,0,0,0,1.4,1.08,3.57,3.57,0,0,0,2.59.11.13.13,0,0,0,0-.06v0a.18.18,0,0,0,0,.07,3.45,3.45,0,0,0,.8-.38A.44.44,0,0,0,447.31,527.89Z"></path><path class="ab42e93c-db02-4dc0-9f71-ccb6e633d65c" d="M442.63,524.45a.47.47,0,0,0-.39-.46.45.45,0,0,0,.39-.45.48.48,0,0,0,0-.18.46.46,0,0,0,.27-.42.4.4,0,0,0-.06-.22.74.74,0,0,0,.34.08.69.69,0,0,0,.69-.69.67.67,0,0,0-.17-.46,4.42,4.42,0,0,0-1.22,1.62,4.36,4.36,0,0,0-.36,1.63h.08A.46.46,0,0,0,442.63,524.45Z"></path><path class="ab42e93c-db02-4dc0-9f71-ccb6e633d65c" d="M449.8,524.3h0a4,4,0,0,0-.74-2.09l-.07,0c0-.05,0-.09,0-.13a3.91,3.91,0,0,0-.57-.58h-.23a.68.68,0,0,0,0-.14,2.92,2.92,0,0,0-.6-.34,3.61,3.61,0,0,0-2.42-.16.33.33,0,0,0,.06.1.75.75,0,0,0-.5.7.74.74,0,0,0,.73.74.64.64,0,0,0,.2,0,.88.88,0,0,0,.64,1.48.84.84,0,0,0,.45-.12.51.51,0,0,0,1-.12.74.74,0,0,0,1.26-.43.51.51,0,0,0,.17,0h.07a.48.48,0,0,0,.12.33.46.46,0,0,0,0,.89.65.65,0,0,0-.26.53.59.59,0,0,0,.05.23,1,1,0,0,0-.33.71,1,1,0,0,0,.12.45h-.12a.51.51,0,0,0-.32.9h-.1a.66.66,0,0,0-.66.67.6.6,0,0,0,.1.35,4.23,4.23,0,0,0,1-.87l0,0h.07a4.73,4.73,0,0,0,.63-1A4.4,4.4,0,0,0,449.8,524.3Zm-2.94-3h-.14v0h0l.11,0A.2.2,0,0,0,446.86,521.29Zm.65,1.06v0Zm0-.2a.44.44,0,0,0-.06-.16h.09A.76.76,0,0,0,447.52,522.15Z"></path></g><line class="ac69048d-b558-4ef1-bb29-f8a9c495708f" x1="428.17" y1="288.49" x2="428.17" y2="348.02"></line><path class="edfea74f-9d96-478e-9d56-e35cd481f716" d="M419.7,360.71l7.54,7.53a1.3,1.3,0,0,0,1.84,0l7.53-7.53a1.9,1.9,0,0,0,.29-2.4,1.85,1.85,0,0,0-2.83-.27L430,362.12v-8.64a1.89,1.89,0,0,0-1.26-1.82,1.85,1.85,0,0,0-2.42,1.75v8.71L422.24,358a1.86,1.86,0,0,0-2.84.29A2,2,0,0,0,419.7,360.71Z"></path><rect class="a9ccac3b-ebc4-42ee-8f24-a3b97b541d36" x="423.49" y="380.85" width="9.36" height="9.36" transform="translate(813.7 -42.64) rotate(90)"></rect><rect class="a9ccac3b-ebc4-42ee-8f24-a3b97b541d36" x="436.38" y="364.59" width="6.78" height="58.01" rx="0.66" transform="translate(833.37 -46.17) rotate(90)"></rect></g></g></g></svg>